<svg width="800" height="306" viewBox="0 0 800 306" version="1.1" xmlns="http://www.w3.org/2000/svg" xmlns:xlink="http://www.w3.org/1999/xlink">
<title>New Student Form</title>
<desc>Created using Figma</desc>
<g id="Canvas" transform="translate(586 -1372)">
<g id="New Student Form">
<g id="Header">
<g id="Rectangle">
<use xlink:href="#path0_fill" transform="translate(-586 1372)" fill="#C4C4C4"/>
</g>
<g id="Home">
<use xlink:href="#path1_fill" transform="translate(-576 1387)"/>
<use xlink:href="#path2_fill" transform="translate(-576 1387)"/>
</g>
<g id="Students">
<use xlink:href="#path3_fill" transform="translate(72 1387)"/>
<use xlink:href="#path4_fill" transform="translate(72 1387)"/>
</g>
<g id="Campuses">
<use xlink:href="#path5_fill" transform="translate(-59 1387)"/>
<use xlink:href="#path6_fill" transform="translate(-59 1387)"/>
</g>
</g>
<g id="Student Name">
<use xlink:href="#path7_fill" transform="translate(-463 1440)"/>
</g>
<g id="Text Input">
<g id="Rectangle">
<use xlink:href="#path8_fill" transform="translate(-431 1538)" fill="#FAFAFA"/>
<mask id="mask0_outline_ins">
<use xlink:href="#path8_fill" fill="white" transform="translate(-431 1538)"/>
</mask>
<g mask="url(#mask0_outline_ins)">
<use xlink:href="#path9_stroke_2x" transform="translate(-431 1538)"/>
</g>
</g>
</g>
<g id="Add Campus">
<g id="Rectangle">
<use xlink:href="#path10_fill" transform="translate(-286 1631)" fill="#30CDFF"/>
</g>
<g id="Add Student">
<use xlink:href="#path11_fill" transform="translate(-305 1634)" fill="#F7FCFF"/>
</g>
</g>
</g>
</g>
<defs>
<path id="path0_fill" d="M 0 0L 800 0L 800 52L 0 52L 0 0Z"/>
<path id="path1_fill" d="M 12.7383 22L 10.6875 22L 10.6875 14.1133L 3.69141 14.1133L 3.69141 22L 1.65234 22L 1.65234 4.9375L 3.69141 4.9375L 3.69141 12.2734L 10.6875 12.2734L 10.6875 4.9375L 12.7383 4.9375L 12.7383 22ZM 15.8438 15.543C 15.8438 14.6289 15.9766 13.7812 16.2422 13C 16.5078 12.2109 16.8867 11.5273 17.3789 10.9492C 17.8789 10.3711 18.4844 9.91797 19.1953 9.58984C 19.9062 9.25391 20.707 9.08594 21.5977 9.08594C 22.4961 9.08594 23.3008 9.25391 24.0117 9.58984C 24.7305 9.91797 25.3359 10.3711 25.8281 10.9492C 26.3281 11.5273 26.7109 12.2109 26.9766 13C 27.2422 13.7812 27.375 14.6289 27.375 15.543L 27.375 15.8008C 27.375 16.7148 27.2422 17.5625 26.9766 18.3438C 26.7109 19.125 26.3281 19.8047 25.8281 20.3828C 25.3359 20.9609 24.7344 21.4141 24.0234 21.7422C 23.3125 22.0703 22.5117 22.2344 21.6211 22.2344C 20.7227 22.2344 19.9141 22.0703 19.1953 21.7422C 18.4844 21.4141 17.8789 20.9609 17.3789 20.3828C 16.8867 19.8047 16.5078 19.125 16.2422 18.3438C 15.9766 17.5625 15.8438 16.7148 15.8438 15.8008L 15.8438 15.543ZM 18.0117 15.8008C 18.0117 16.4258 18.0859 17.0234 18.2344 17.5938C 18.3828 18.1562 18.6055 18.6523 18.9023 19.082C 19.207 19.5117 19.5859 19.8516 20.0391 20.1016C 20.4922 20.3516 21.0195 20.4766 21.6211 20.4766C 22.2148 20.4766 22.7344 20.3516 23.1797 20.1016C 23.6328 19.8516 24.0078 19.5117 24.3047 19.082C 24.6094 18.6523 24.8359 18.1562 24.9844 17.5938C 25.1328 17.0234 25.207 16.4258 25.207 15.8008L 25.207 15.543C 25.207 14.9258 25.1289 14.3359 24.9727 13.7734C 24.8242 13.2031 24.5977 12.7031 24.293 12.2734C 23.9961 11.8438 23.6211 11.5039 23.168 11.2539C 22.7227 10.9961 22.1992 10.8672 21.5977 10.8672C 20.9961 10.8672 20.4727 10.9961 20.0273 11.2539C 19.582 11.5039 19.207 11.8438 18.9023 12.2734C 18.6055 12.7031 18.3828 13.2031 18.2344 13.7734C 18.0859 14.3359 18.0117 14.9258 18.0117 15.543L 18.0117 15.8008ZM 31.8633 9.32031L 31.9219 10.5156C 32.1797 10.0703 32.5156 9.72266 32.9297 9.47266C 33.3516 9.22266 33.8594 9.09375 34.4531 9.08594C 35.6172 9.08594 36.3945 9.53906 36.7852 10.4453C 37.0352 10.0391 37.3633 9.71484 37.7695 9.47266C 38.1836 9.22266 38.6836 9.09375 39.2695 9.08594C 40.1992 9.08594 40.9141 9.37109 41.4141 9.94141C 41.9141 10.5117 42.1641 11.375 42.1641 12.5312L 42.1641 22L 40.1016 22L 40.1016 12.5078C 40.1016 11.4453 39.6133 10.918 38.6367 10.9258C 38.3789 10.9258 38.1562 10.9609 37.9688 11.0312C 37.7812 11.1016 37.625 11.1992 37.5 11.3242C 37.375 11.4414 37.2773 11.582 37.207 11.7461C 37.1367 11.9023 37.0898 12.0664 37.0664 12.2383L 37.0664 22L 35.0039 22L 35.0039 12.4961C 35.0039 11.9883 34.8906 11.5977 34.6641 11.3242C 34.4375 11.0508 34.0781 10.918 33.5859 10.9258C 33.1328 10.9258 32.7812 11.0156 32.5312 11.1953C 32.2812 11.375 32.0977 11.6133 31.9805 11.9102L 31.9805 22L 29.918 22L 29.918 9.32031L 31.8633 9.32031ZM 50.8828 22.2344C 49.9922 22.2344 49.1719 22.082 48.4219 21.7773C 47.6797 21.4727 47.043 21.0469 46.5117 20.5C 45.9805 19.9531 45.5664 19.3047 45.2695 18.5547C 44.9727 17.8047 44.8242 16.9883 44.8242 16.1055L 44.8242 15.6133C 44.8242 14.5898 44.9883 13.6758 45.3164 12.8711C 45.6445 12.0586 46.0781 11.375 46.6172 10.8203C 47.1641 10.2578 47.7812 9.82812 48.4688 9.53125C 49.1641 9.23438 49.875 9.08594 50.6016 9.08594C 51.5156 9.08594 52.3125 9.24609 52.9922 9.56641C 53.6797 9.87891 54.25 10.3164 54.7031 10.8789C 55.1562 11.4336 55.4922 12.0898 55.7109 12.8477C 55.9375 13.6055 56.0508 14.4258 56.0508 15.3086L 56.0508 16.2812L 46.9922 16.2812C 47.0156 16.8594 47.125 17.4023 47.3203 17.9102C 47.5234 18.418 47.7969 18.8633 48.1406 19.2461C 48.4922 19.6211 48.9102 19.918 49.3945 20.1367C 49.8789 20.3555 50.4141 20.4648 51 20.4648C 51.7734 20.4648 52.4609 20.3086 53.0625 19.9961C 53.6641 19.6836 54.1641 19.2695 54.5625 18.7539L 55.8867 19.7852C 55.6758 20.1055 55.4102 20.4141 55.0898 20.7109C 54.7773 21 54.4141 21.2578 54 21.4844C 53.5859 21.7109 53.1172 21.8906 52.5938 22.0234C 52.0703 22.1641 51.5 22.2344 50.8828 22.2344ZM 50.6016 10.8672C 50.1641 10.8672 49.75 10.9492 49.3594 11.1133C 48.9688 11.2695 48.6172 11.5039 48.3047 11.8164C 47.9922 12.1211 47.7266 12.5 47.5078 12.9531C 47.2969 13.3984 47.1484 13.9141 47.0625 14.5L 53.8828 14.5L 53.8828 14.3359C 53.8594 13.9141 53.7773 13.4961 53.6367 13.082C 53.5039 12.668 53.3047 12.2969 53.0391 11.9688C 52.7734 11.6406 52.4375 11.375 52.0312 11.1719C 51.6328 10.9688 51.1562 10.8672 50.6016 10.8672Z"/>
<path id="path2_fill" d="M 0 24.6094L 57.6445 24.6094L 57.6445 25.7812L 0 25.7812L 0 24.6094Z"/>
<path id="path3_fill" d="M 10.9688 17.6875C 10.9688 17.1641 10.8477 16.7227 10.6055 16.3633C 10.3711 16.0039 10.0664 15.7031 9.69141 15.4609C 9.31641 15.2109 8.90234 15.0039 8.44922 14.8398C 8.00391 14.6758 7.57422 14.5273 7.16016 14.3945C 6.55859 14.1992 5.94531 13.9648 5.32031 13.6914C 4.70312 13.418 4.13672 13.082 3.62109 12.6836C 3.11328 12.2852 2.69531 11.8164 2.36719 11.2773C 2.04688 10.7305 1.88672 10.0898 1.88672 9.35547C 1.88672 8.62109 2.04688 7.96484 2.36719 7.38672C 2.69531 6.80859 3.12109 6.32031 3.64453 5.92188C 4.16797 5.52344 4.76172 5.22266 5.42578 5.01953C 6.08984 4.80859 6.75781 4.70312 7.42969 4.70312C 8.17188 4.70312 8.88672 4.82813 9.57422 5.07812C 10.2617 5.32031 10.8711 5.66406 11.4023 6.10938C 11.9336 6.55469 12.3594 7.09375 12.6797 7.72656C 13 8.35938 13.168 9.06641 13.1836 9.84766L 10.957 9.84766C 10.8945 9.35547 10.7734 8.91016 10.5938 8.51172C 10.4141 8.10547 10.1758 7.75781 9.87891 7.46875C 9.58203 7.17969 9.22656 6.95703 8.8125 6.80078C 8.40625 6.63672 7.94531 6.55469 7.42969 6.55469C 7.01562 6.55469 6.60938 6.61328 6.21094 6.73047C 5.82031 6.84766 5.46875 7.02344 5.15625 7.25781C 4.85156 7.49219 4.60547 7.78125 4.41797 8.125C 4.23828 8.46875 4.14844 8.86719 4.14844 9.32031C 4.15625 9.8125 4.28125 10.2305 4.52344 10.5742C 4.76562 10.9102 5.07031 11.1953 5.4375 11.4297C 5.8125 11.6641 6.21484 11.8594 6.64453 12.0156C 7.08203 12.1719 7.49219 12.3086 7.875 12.4258C 8.29688 12.5586 8.72266 12.7109 9.15234 12.8828C 9.58203 13.0469 9.99609 13.2383 10.3945 13.457C 10.793 13.6758 11.1641 13.9219 11.5078 14.1953C 11.8516 14.4688 12.1523 14.7812 12.4102 15.1328C 12.668 15.4766 12.8672 15.8594 13.0078 16.2812C 13.1562 16.6953 13.2305 17.1562 13.2305 17.6641C 13.2305 18.4297 13.0586 19.0977 12.7148 19.668C 12.3789 20.2383 11.9414 20.7148 11.4023 21.0977C 10.8633 21.4727 10.2539 21.7578 9.57422 21.9531C 8.89453 22.1406 8.21484 22.2344 7.53516 22.2344C 6.77734 22.2344 6.03516 22.1172 5.30859 21.8828C 4.58203 21.6484 3.92969 21.3125 3.35156 20.875C 2.78125 20.4297 2.31641 19.8906 1.95703 19.2578C 1.59766 18.6172 1.40625 17.8906 1.38281 17.0781L 3.59766 17.0781C 3.66797 17.6094 3.8125 18.082 4.03125 18.4961C 4.25 18.9023 4.53125 19.25 4.875 19.5391C 5.21875 19.8203 5.61328 20.0352 6.05859 20.1836C 6.51172 20.3242 7.00391 20.3945 7.53516 20.3945C 7.95703 20.3945 8.37109 20.3438 8.77734 20.2422C 9.19141 20.1328 9.55859 19.9688 9.87891 19.75C 10.1992 19.5234 10.4609 19.2422 10.6641 18.9062C 10.8672 18.5625 10.9688 18.1562 10.9688 17.6875ZM 21.5859 6.25L 21.5859 9.32031L 26.4141 9.32031L 26.4141 10.9961L 21.5859 10.9961L 21.5859 17.8867C 21.5859 18.3789 21.6484 18.7852 21.7734 19.1055C 21.8984 19.4258 22.0703 19.6836 22.2891 19.8789C 22.5078 20.0664 22.7578 20.1992 23.0391 20.2773C 23.3281 20.3555 23.6328 20.3945 23.9531 20.3945C 24.1875 20.3945 24.4297 20.3828 24.6797 20.3594C 24.9297 20.3281 25.1719 20.293 25.4062 20.2539C 25.6484 20.2148 25.8711 20.1758 26.0742 20.1367C 26.2852 20.0898 26.457 20.0508 26.5898 20.0195L 26.8945 21.5547C 26.7148 21.6641 26.4961 21.7617 26.2383 21.8477C 25.9805 21.9258 25.6992 21.9922 25.3945 22.0469C 25.0898 22.1094 24.7656 22.1562 24.4219 22.1875C 24.0859 22.2188 23.75 22.2344 23.4141 22.2344C 22.8516 22.2344 22.3242 22.1562 21.832 22C 21.3477 21.8359 20.9258 21.582 20.5664 21.2383C 20.207 20.8867 19.9219 20.4375 19.7109 19.8906C 19.5078 19.3359 19.4062 18.668 19.4062 17.8867L 19.4062 10.9961L 16.0781 10.9961L 16.0781 9.32031L 19.4062 9.32031L 19.4062 6.25L 21.5859 6.25ZM 39.0938 20.2539C 38.6719 20.8789 38.1445 21.3672 37.5117 21.7188C 36.8789 22.0625 36.1484 22.2344 35.3203 22.2344C 34.6562 22.2344 34.0547 22.1328 33.5156 21.9297C 32.9766 21.7188 32.5156 21.3945 32.1328 20.957C 31.75 20.5195 31.4531 19.9648 31.2422 19.293C 31.0391 18.6133 30.9375 17.8008 30.9375 16.8555L 30.9375 9.32031L 33.1055 9.32031L 33.1055 16.8789C 33.1055 17.5664 33.1602 18.1367 33.2695 18.5898C 33.3789 19.043 33.543 19.4062 33.7617 19.6797C 33.9805 19.9453 34.2461 20.1328 34.5586 20.2422C 34.8789 20.3516 35.2461 20.4062 35.6602 20.4062C 36.543 20.4062 37.2539 20.2266 37.793 19.8672C 38.3398 19.5078 38.7461 19.0234 39.0117 18.4141L 39.0117 9.32031L 41.1914 9.32031L 41.1914 22L 39.2227 22L 39.0938 20.2539ZM 44.8711 15.5547C 44.8711 14.6094 44.9883 13.7422 45.2227 12.9531C 45.4648 12.1562 45.8047 11.4727 46.2422 10.9023C 46.6875 10.332 47.2227 9.88672 47.8477 9.56641C 48.4727 9.24609 49.1719 9.08594 49.9453 9.08594C 50.7031 9.08594 51.3633 9.21484 51.9258 9.47266C 52.4961 9.72266 52.9883 10.0898 53.4023 10.5742L 53.4023 4L 55.5703 4L 55.5703 22L 53.5781 22L 53.4844 20.6641C 53.0625 21.1797 52.5586 21.5703 51.9727 21.8359C 51.3867 22.1016 50.7031 22.2344 49.9219 22.2344C 49.1562 22.2344 48.4609 22.0703 47.8359 21.7422C 47.2188 21.4141 46.6914 20.9609 46.2539 20.3828C 45.8164 19.8047 45.4766 19.125 45.2344 18.3438C 44.9922 17.5547 44.8711 16.707 44.8711 15.8008L 44.8711 15.5547ZM 47.0391 15.8008C 47.0391 16.418 47.1055 17.0039 47.2383 17.5586C 47.3711 18.1133 47.5742 18.6016 47.8477 19.0234C 48.1289 19.4453 48.4844 19.7812 48.9141 20.0312C 49.3438 20.2734 49.8594 20.3945 50.4609 20.3945C 50.8281 20.3945 51.1602 20.3516 51.457 20.2656C 51.7539 20.1797 52.0234 20.0586 52.2656 19.9023C 52.5078 19.7383 52.7227 19.5469 52.9102 19.3281C 53.0977 19.1016 53.2617 18.8516 53.4023 18.5781L 53.4023 12.6953C 53.1211 12.1797 52.7422 11.7578 52.2656 11.4297C 51.7891 11.0938 51.1953 10.9258 50.4844 10.9258C 49.875 10.9258 49.3516 11.0508 48.9141 11.3008C 48.4844 11.5508 48.1289 11.8906 47.8477 12.3203C 47.5742 12.7422 47.3711 13.2344 47.2383 13.7969C 47.1055 14.3516 47.0391 14.9375 47.0391 15.5547L 47.0391 15.8008ZM 65.2969 22.2344C 64.4062 22.2344 63.5859 22.082 62.8359 21.7773C 62.0938 21.4727 61.457 21.0469 60.9258 20.5C 60.3945 19.9531 59.9805 19.3047 59.6836 18.5547C 59.3867 17.8047 59.2383 16.9883 59.2383 16.1055L 59.2383 15.6133C 59.2383 14.5898 59.4023 13.6758 59.7305 12.8711C 60.0586 12.0586 60.4922 11.375 61.0312 10.8203C 61.5781 10.2578 62.1953 9.82812 62.8828 9.53125C 63.5781 9.23438 64.2891 9.08594 65.0156 9.08594C 65.9297 9.08594 66.7266 9.24609 67.4062 9.56641C 68.0938 9.87891 68.6641 10.3164 69.1172 10.8789C 69.5703 11.4336 69.9062 12.0898 70.125 12.8477C 70.3516 13.6055 70.4648 14.4258 70.4648 15.3086L 70.4648 16.2812L 61.4062 16.2812C 61.4297 16.8594 61.5391 17.4023 61.7344 17.9102C 61.9375 18.418 62.2109 18.8633 62.5547 19.2461C 62.9062 19.6211 63.3242 19.918 63.8086 20.1367C 64.293 20.3555 64.8281 20.4648 65.4141 20.4648C 66.1875 20.4648 66.875 20.3086 67.4766 19.9961C 68.0781 19.6836 68.5781 19.2695 68.9766 18.7539L 70.3008 19.7852C 70.0898 20.1055 69.8242 20.4141 69.5039 20.7109C 69.1914 21 68.8281 21.2578 68.4141 21.4844C 68 21.7109 67.5312 21.8906 67.0078 22.0234C 66.4844 22.1641 65.9141 22.2344 65.2969 22.2344ZM 65.0156 10.8672C 64.5781 10.8672 64.1641 10.9492 63.7734 11.1133C 63.3828 11.2695 63.0312 11.5039 62.7188 11.8164C 62.4062 12.1211 62.1406 12.5 61.9219 12.9531C 61.7109 13.3984 61.5625 13.9141 61.4766 14.5L 68.2969 14.5L 68.2969 14.3359C 68.2734 13.9141 68.1914 13.4961 68.0508 13.082C 67.918 12.668 67.7188 12.2969 67.4531 11.9688C 67.1875 11.6406 66.8516 11.375 66.4453 11.1719C 66.0469 10.9688 65.5703 10.8672 65.0156 10.8672ZM 76.0547 9.32031L 76.207 11.1953C 76.668 10.5391 77.2344 10.0273 77.9062 9.66016C 78.5781 9.28516 79.3281 9.09375 80.1562 9.08594C 80.8203 9.08594 81.4219 9.17969 81.9609 9.36719C 82.5078 9.55469 82.9727 9.84766 83.3555 10.2461C 83.7383 10.6445 84.0312 11.1523 84.2344 11.7695C 84.4453 12.3789 84.5508 13.1055 84.5508 13.9492L 84.5508 22L 82.3828 22L 82.3828 13.9961C 82.3828 13.4336 82.3203 12.957 82.1953 12.5664C 82.0703 12.1758 81.8828 11.8594 81.6328 11.6172C 81.3906 11.375 81.0898 11.1992 80.7305 11.0898C 80.3789 10.9805 79.9727 10.9258 79.5117 10.9258C 78.7852 10.9258 78.1445 11.1094 77.5898 11.4766C 77.043 11.8359 76.6055 12.3125 76.2773 12.9062L 76.2773 22L 74.1094 22L 74.1094 9.32031L 76.0547 9.32031ZM 93.6562 6.25L 93.6562 9.32031L 98.4844 9.32031L 98.4844 10.9961L 93.6562 10.9961L 93.6562 17.8867C 93.6562 18.3789 93.7188 18.7852 93.8438 19.1055C 93.9688 19.4258 94.1406 19.6836 94.3594 19.8789C 94.5781 20.0664 94.8281 20.1992 95.1094 20.2773C 95.3984 20.3555 95.7031 20.3945 96.0234 20.3945C 96.2578 20.3945 96.5 20.3828 96.75 20.3594C 97 20.3281 97.2422 20.293 97.4766 20.2539C 97.7188 20.2148 97.9414 20.1758 98.1445 20.1367C 98.3555 20.0898 98.5273 20.0508 98.6602 20.0195L 98.9648 21.5547C 98.7852 21.6641 98.5664 21.7617 98.3086 21.8477C 98.0508 21.9258 97.7695 21.9922 97.4648 22.0469C 97.1602 22.1094 96.8359 22.1562 96.4922 22.1875C 96.1562 22.2188 95.8203 22.2344 95.4844 22.2344C 94.9219 22.2344 94.3945 22.1562 93.9023 22C 93.418 21.8359 92.9961 21.582 92.6367 21.2383C 92.2773 20.8867 91.9922 20.4375 91.7812 19.8906C 91.5781 19.3359 91.4766 18.668 91.4766 17.8867L 91.4766 10.9961L 88.1484 10.9961L 88.1484 9.32031L 91.4766 9.32031L 91.4766 6.25L 93.6562 6.25ZM 111.363 18.6367C 111.363 18.3789 111.312 18.1484 111.211 17.9453C 111.109 17.7344 110.938 17.543 110.695 17.3711C 110.453 17.1992 110.133 17.043 109.734 16.9023C 109.336 16.7539 108.84 16.6211 108.246 16.5039C 107.52 16.3555 106.855 16.1758 106.254 15.9648C 105.66 15.7539 105.148 15.5039 104.719 15.2148C 104.297 14.918 103.969 14.5742 103.734 14.1836C 103.5 13.7852 103.383 13.3242 103.383 12.8008C 103.383 12.2852 103.504 11.8047 103.746 11.3594C 103.988 10.9062 104.328 10.5117 104.766 10.1758C 105.203 9.83984 105.723 9.57422 106.324 9.37891C 106.934 9.18359 107.602 9.08594 108.328 9.08594C 109.109 9.08594 109.812 9.1875 110.438 9.39062C 111.062 9.59375 111.594 9.875 112.031 10.2344C 112.469 10.5938 112.805 11.0156 113.039 11.5C 113.281 11.9766 113.402 12.4922 113.402 13.0469L 111.234 13.0469C 111.234 12.7734 111.164 12.5078 111.023 12.25C 110.883 11.9844 110.688 11.75 110.438 11.5469C 110.188 11.3438 109.883 11.1797 109.523 11.0547C 109.172 10.9297 108.773 10.8672 108.328 10.8672C 107.867 10.8672 107.461 10.918 107.109 11.0195C 106.766 11.1211 106.477 11.2578 106.242 11.4297C 106.016 11.6016 105.844 11.8008 105.727 12.0273C 105.609 12.2539 105.551 12.4883 105.551 12.7305C 105.551 12.9805 105.598 13.2031 105.691 13.3984C 105.785 13.5938 105.945 13.7695 106.172 13.9258C 106.406 14.082 106.715 14.2227 107.098 14.3477C 107.488 14.4727 107.98 14.5938 108.574 14.7109C 109.355 14.875 110.055 15.0664 110.672 15.2852C 111.289 15.4961 111.809 15.7539 112.23 16.0586C 112.652 16.3555 112.973 16.7031 113.191 17.1016C 113.418 17.5 113.531 17.9609 113.531 18.4844C 113.531 19.0469 113.402 19.5586 113.145 20.0195C 112.895 20.4805 112.543 20.875 112.09 21.2031C 111.637 21.5312 111.094 21.7852 110.461 21.9648C 109.828 22.1445 109.137 22.2344 108.387 22.2344C 107.527 22.2344 106.762 22.1211 106.09 21.8945C 105.418 21.6602 104.848 21.3555 104.379 20.9805C 103.918 20.5977 103.562 20.1562 103.312 19.6562C 103.07 19.1562 102.949 18.6367 102.949 18.0977L 105.117 18.0977C 105.148 18.543 105.266 18.918 105.469 19.2227C 105.68 19.5273 105.938 19.7734 106.242 19.9609C 106.555 20.1484 106.898 20.2812 107.273 20.3594C 107.648 20.4375 108.02 20.4766 108.387 20.4766C 109.301 20.4766 110.023 20.3086 110.555 19.9727C 111.086 19.6367 111.355 19.1914 111.363 18.6367Z"/>
<path id="path4_fill" d="M 0 24.6094L 115.301 24.6094L 115.301 25.7812L 0 25.7812L 0 24.6094Z"/>
<path id="path5_fill" d="M 13.0898 16.8672C 12.9883 17.6562 12.7852 18.3828 12.4805 19.0469C 12.1758 19.7031 11.7773 20.2695 11.2852 20.7461C 10.8008 21.2148 10.2227 21.582 9.55078 21.8477C 8.88672 22.1055 8.14453 22.2344 7.32422 22.2344C 6.62109 22.2344 5.98047 22.1367 5.40234 21.9414C 4.83203 21.7383 4.32031 21.4609 3.86719 21.1094C 3.42188 20.7578 3.03516 20.3438 2.70703 19.8672C 2.38672 19.3906 2.11719 18.8711 1.89844 18.3086C 1.6875 17.7461 1.52734 17.1562 1.41797 16.5391C 1.31641 15.9219 1.26172 15.2969 1.25391 14.6641L 1.25391 12.2852C 1.26172 11.6523 1.31641 11.0273 1.41797 10.4102C 1.52734 9.79297 1.6875 9.20312 1.89844 8.64062C 2.11719 8.07812 2.38672 7.55859 2.70703 7.08203C 3.03516 6.59766 3.42188 6.17969 3.86719 5.82812C 4.32031 5.47656 4.83203 5.20313 5.40234 5.00781C 5.97266 4.80469 6.61328 4.70312 7.32422 4.70312C 8.17578 4.70312 8.9375 4.83594 9.60938 5.10156C 10.2812 5.35938 10.8594 5.73047 11.3438 6.21484C 11.8281 6.69141 12.2148 7.26563 12.5039 7.9375C 12.8008 8.60938 12.9961 9.35156 13.0898 10.1641L 10.9219 10.1641C 10.8516 9.64844 10.7305 9.16797 10.5586 8.72266C 10.3867 8.27734 10.1562 7.88672 9.86719 7.55078C 9.57812 7.21484 9.22266 6.95312 8.80078 6.76562C 8.38672 6.57031 7.89453 6.47266 7.32422 6.47266C 6.80859 6.47266 6.35156 6.55859 5.95312 6.73047C 5.5625 6.89453 5.22266 7.12109 4.93359 7.41016C 4.65234 7.69922 4.41406 8.03516 4.21875 8.41797C 4.03125 8.80078 3.87891 9.20703 3.76172 9.63672C 3.64453 10.0664 3.55859 10.5078 3.50391 10.9609C 3.45703 11.4062 3.43359 11.8398 3.43359 12.2617L 3.43359 14.6641C 3.43359 15.0859 3.45703 15.5234 3.50391 15.9766C 3.55859 16.4219 3.64453 16.8633 3.76172 17.3008C 3.87891 17.7305 4.03125 18.1367 4.21875 18.5195C 4.40625 18.9023 4.64453 19.2422 4.93359 19.5391C 5.22266 19.8281 5.5625 20.0586 5.95312 20.2305C 6.34375 20.3945 6.80078 20.4766 7.32422 20.4766C 7.89453 20.4766 8.38672 20.3867 8.80078 20.207C 9.22266 20.0273 9.57812 19.7773 9.86719 19.457C 10.1562 19.1289 10.3867 18.7461 10.5586 18.3086C 10.7305 17.8633 10.8516 17.3828 10.9219 16.8672L 13.0898 16.8672ZM 24.7852 22C 24.6992 21.8359 24.6289 21.6328 24.5742 21.3906C 24.5273 21.1406 24.4922 20.8828 24.4688 20.6172C 24.25 20.8359 24.0039 21.043 23.7305 21.2383C 23.4648 21.4336 23.168 21.6055 22.8398 21.7539C 22.5195 21.9023 22.1758 22.0195 21.8086 22.1055C 21.4414 22.1914 21.0508 22.2344 20.6367 22.2344C 19.9648 22.2344 19.3555 22.1367 18.8086 21.9414C 18.2695 21.7461 17.8086 21.4844 17.4258 21.1562C 17.0508 20.8203 16.7578 20.4258 16.5469 19.9727C 16.3438 19.5117 16.2422 19.0156 16.2422 18.4844C 16.2422 17.7891 16.3789 17.1797 16.6523 16.6562C 16.9336 16.1328 17.3281 15.6992 17.8359 15.3555C 18.3438 15.0039 18.9531 14.7422 19.6641 14.5703C 20.3828 14.3984 21.1836 14.3125 22.0664 14.3125L 24.4336 14.3125L 24.4336 13.3164C 24.4336 12.9336 24.3633 12.5898 24.2227 12.2852C 24.082 11.9805 23.8828 11.7227 23.625 11.5117C 23.3672 11.293 23.0508 11.125 22.6758 11.0078C 22.3086 10.8906 21.8945 10.832 21.4336 10.832C 21.0039 10.832 20.6172 10.8867 20.2734 10.9961C 19.9375 11.1055 19.6523 11.25 19.418 11.4297C 19.1836 11.6094 19 11.8242 18.8672 12.0742C 18.7422 12.3164 18.6797 12.5703 18.6797 12.8359L 16.5 12.8359C 16.5078 12.375 16.625 11.9219 16.8516 11.4766C 17.0859 11.0312 17.418 10.6328 17.8477 10.2812C 18.2852 9.92188 18.8125 9.63281 19.4297 9.41406C 20.0547 9.19531 20.7617 9.08594 21.5508 9.08594C 22.2695 9.08594 22.9375 9.17578 23.5547 9.35547C 24.1719 9.52734 24.7031 9.79297 25.1484 10.1523C 25.6016 10.5039 25.957 10.9453 26.2148 11.4766C 26.4727 12.0078 26.6016 12.6289 26.6016 13.3398L 26.6016 19.2344C 26.6016 19.6562 26.6406 20.1055 26.7188 20.582C 26.7969 21.0508 26.9062 21.4609 27.0469 21.8125L 27.0469 22L 24.7852 22ZM 20.9531 20.3477C 21.375 20.3477 21.7695 20.293 22.1367 20.1836C 22.5039 20.0742 22.8359 19.9297 23.1328 19.75C 23.4375 19.5703 23.6992 19.3672 23.918 19.1406C 24.1367 18.9062 24.3086 18.6641 24.4336 18.4141L 24.4336 15.8477L 22.418 15.8477C 21.1523 15.8477 20.168 16.0352 19.4648 16.4102C 18.7617 16.7852 18.4102 17.375 18.4102 18.1797C 18.4102 18.4922 18.4609 18.7812 18.5625 19.0469C 18.6719 19.3125 18.832 19.543 19.043 19.7383C 19.2539 19.9258 19.5195 20.0742 19.8398 20.1836C 20.1602 20.293 20.5312 20.3477 20.9531 20.3477ZM 31.8633 9.32031L 31.9219 10.5156C 32.1797 10.0703 32.5156 9.72266 32.9297 9.47266C 33.3516 9.22266 33.8594 9.09375 34.4531 9.08594C 35.6172 9.08594 36.3945 9.53906 36.7852 10.4453C 37.0352 10.0391 37.3633 9.71484 37.7695 9.47266C 38.1836 9.22266 38.6836 9.09375 39.2695 9.08594C 40.1992 9.08594 40.9141 9.37109 41.4141 9.94141C 41.9141 10.5117 42.1641 11.375 42.1641 12.5312L 42.1641 22L 40.1016 22L 40.1016 12.5078C 40.1016 11.4453 39.6133 10.918 38.6367 10.9258C 38.3789 10.9258 38.1562 10.9609 37.9688 11.0312C 37.7812 11.1016 37.625 11.1992 37.5 11.3242C 37.375 11.4414 37.2773 11.582 37.207 11.7461C 37.1367 11.9023 37.0898 12.0664 37.0664 12.2383L 37.0664 22L 35.0039 22L 35.0039 12.4961C 35.0039 11.9883 34.8906 11.5977 34.6641 11.3242C 34.4375 11.0508 34.0781 10.918 33.5859 10.9258C 33.1328 10.9258 32.7812 11.0156 32.5312 11.1953C 32.2812 11.375 32.0977 11.6133 31.9805 11.9102L 31.9805 22L 29.918 22L 29.918 9.32031L 31.8633 9.32031ZM 55.9805 15.8008C 55.9805 16.707 55.8711 17.5547 55.6523 18.3438C 55.4336 19.125 55.1133 19.8047 54.6914 20.3828C 54.2695 20.9609 53.7461 21.4141 53.1211 21.7422C 52.5039 22.0703 51.7969 22.2344 51 22.2344C 50.2266 22.2344 49.543 22.1094 48.9492 21.8594C 48.3633 21.6094 47.8594 21.25 47.4375 20.7812L 47.4375 26.875L 45.2695 26.875L 45.2695 9.32031L 47.25 9.32031L 47.3555 10.7031C 47.7773 10.1797 48.2852 9.78125 48.8789 9.50781C 49.4805 9.22656 50.1758 9.08594 50.9648 9.08594C 51.7773 9.08594 52.4961 9.24609 53.1211 9.56641C 53.7461 9.88672 54.2695 10.332 54.6914 10.9023C 55.1133 11.4727 55.4336 12.1562 55.6523 12.9531C 55.8711 13.7422 55.9805 14.6094 55.9805 15.5547L 55.9805 15.8008ZM 53.8125 15.5547C 53.8125 14.9375 53.7422 14.3516 53.6016 13.7969C 53.4688 13.2344 53.2578 12.7422 52.9688 12.3203C 52.6875 11.8906 52.3281 11.5508 51.8906 11.3008C 51.4531 11.0508 50.9297 10.9258 50.3203 10.9258C 49.625 10.9258 49.0391 11.0898 48.5625 11.418C 48.0938 11.7383 47.7188 12.1523 47.4375 12.6602L 47.4375 18.7656C 47.7188 19.2656 48.0938 19.6758 48.5625 19.9961C 49.0312 20.3086 49.625 20.4648 50.3438 20.4648C 50.9453 20.4648 51.4648 20.3398 51.9023 20.0898C 52.3398 19.832 52.6992 19.4883 52.9805 19.0586C 53.2617 18.6289 53.4688 18.1328 53.6016 17.5703C 53.7422 17.0078 53.8125 16.418 53.8125 15.8008L 53.8125 15.5547ZM 67.9219 20.2539C 67.5 20.8789 66.9727 21.3672 66.3398 21.7188C 65.707 22.0625 64.9766 22.2344 64.1484 22.2344C 63.4844 22.2344 62.8828 22.1328 62.3438 21.9297C 61.8047 21.7188 61.3438 21.3945 60.9609 20.957C 60.5781 20.5195 60.2812 19.9648 60.0703 19.293C 59.8672 18.6133 59.7656 17.8008 59.7656 16.8555L 59.7656 9.32031L 61.9336 9.32031L 61.9336 16.8789C 61.9336 17.5664 61.9883 18.1367 62.0977 18.5898C 62.207 19.043 62.3711 19.4062 62.5898 19.6797C 62.8086 19.9453 63.0742 20.1328 63.3867 20.2422C 63.707 20.3516 64.0742 20.4062 64.4883 20.4062C 65.3711 20.4062 66.082 20.2266 66.6211 19.8672C 67.168 19.5078 67.5742 19.0234 67.8398 18.4141L 67.8398 9.32031L 70.0195 9.32031L 70.0195 22L 68.0508 22L 67.9219 20.2539ZM 82.5352 18.6367C 82.5352 18.3789 82.4844 18.1484 82.3828 17.9453C 82.2812 17.7344 82.1094 17.543 81.8672 17.3711C 81.625 17.1992 81.3047 17.043 80.9062 16.9023C 80.5078 16.7539 80.0117 16.6211 79.418 16.5039C 78.6914 16.3555 78.0273 16.1758 77.4258 15.9648C 76.832 15.7539 76.3203 15.5039 75.8906 15.2148C 75.4688 14.918 75.1406 14.5742 74.9062 14.1836C 74.6719 13.7852 74.5547 13.3242 74.5547 12.8008C 74.5547 12.2852 74.6758 11.8047 74.918 11.3594C 75.1602 10.9062 75.5 10.5117 75.9375 10.1758C 76.375 9.83984 76.8945 9.57422 77.4961 9.37891C 78.1055 9.18359 78.7734 9.08594 79.5 9.08594C 80.2812 9.08594 80.9844 9.1875 81.6094 9.39062C 82.2344 9.59375 82.7656 9.875 83.2031 10.2344C 83.6406 10.5938 83.9766 11.0156 84.2109 11.5C 84.4531 11.9766 84.5742 12.4922 84.5742 13.0469L 82.4062 13.0469C 82.4062 12.7734 82.3359 12.5078 82.1953 12.25C 82.0547 11.9844 81.8594 11.75 81.6094 11.5469C 81.3594 11.3438 81.0547 11.1797 80.6953 11.0547C 80.3438 10.9297 79.9453 10.8672 79.5 10.8672C 79.0391 10.8672 78.6328 10.918 78.2812 11.0195C 77.9375 11.1211 77.6484 11.2578 77.4141 11.4297C 77.1875 11.6016 77.0156 11.8008 76.8984 12.0273C 76.7812 12.2539 76.7227 12.4883 76.7227 12.7305C 76.7227 12.9805 76.7695 13.2031 76.8633 13.3984C 76.957 13.5938 77.1172 13.7695 77.3438 13.9258C 77.5781 14.082 77.8867 14.2227 78.2695 14.3477C 78.6602 14.4727 79.1523 14.5938 79.7461 14.7109C 80.5273 14.875 81.2266 15.0664 81.8438 15.2852C 82.4609 15.4961 82.9805 15.7539 83.4023 16.0586C 83.8242 16.3555 84.1445 16.7031 84.3633 17.1016C 84.5898 17.5 84.7031 17.9609 84.7031 18.4844C 84.7031 19.0469 84.5742 19.5586 84.3164 20.0195C 84.0664 20.4805 83.7148 20.875 83.2617 21.2031C 82.8086 21.5312 82.2656 21.7852 81.6328 21.9648C 81 22.1445 80.3086 22.2344 79.5586 22.2344C 78.6992 22.2344 77.9336 22.1211 77.2617 21.8945C 76.5898 21.6602 76.0195 21.3555 75.5508 20.9805C 75.0898 20.5977 74.7344 20.1562 74.4844 19.6562C 74.2422 19.1562 74.1211 18.6367 74.1211 18.0977L 76.2891 18.0977C 76.3203 18.543 76.4375 18.918 76.6406 19.2227C 76.8516 19.5273 77.1094 19.7734 77.4141 19.9609C 77.7266 20.1484 78.0703 20.2812 78.4453 20.3594C 78.8203 20.4375 79.1914 20.4766 79.5586 20.4766C 80.4727 20.4766 81.1953 20.3086 81.7266 19.9727C 82.2578 19.6367 82.5273 19.1914 82.5352 18.6367ZM 94.125 22.2344C 93.2344 22.2344 92.4141 22.082 91.6641 21.7773C 90.9219 21.4727 90.2852 21.0469 89.7539 20.5C 89.2227 19.9531 88.8086 19.3047 88.5117 18.5547C 88.2148 17.8047 88.0664 16.9883 88.0664 16.1055L 88.0664 15.6133C 88.0664 14.5898 88.2305 13.6758 88.5586 12.8711C 88.8867 12.0586 89.3203 11.375 89.8594 10.8203C 90.4062 10.2578 91.0234 9.82812 91.7109 9.53125C 92.4062 9.23438 93.1172 9.08594 93.8438 9.08594C 94.7578 9.08594 95.5547 9.24609 96.2344 9.56641C 96.9219 9.87891 97.4922 10.3164 97.9453 10.8789C 98.3984 11.4336 98.7344 12.0898 98.9531 12.8477C 99.1797 13.6055 99.293 14.4258 99.293 15.3086L 99.293 16.2812L 90.2344 16.2812C 90.2578 16.8594 90.3672 17.4023 90.5625 17.9102C 90.7656 18.418 91.0391 18.8633 91.3828 19.2461C 91.7344 19.6211 92.1523 19.918 92.6367 20.1367C 93.1211 20.3555 93.6562 20.4648 94.2422 20.4648C 95.0156 20.4648 95.7031 20.3086 96.3047 19.9961C 96.9062 19.6836 97.4062 19.2695 97.8047 18.7539L 99.1289 19.7852C 98.918 20.1055 98.6523 20.4141 98.332 20.7109C 98.0195 21 97.6562 21.2578 97.2422 21.4844C 96.8281 21.7109 96.3594 21.8906 95.8359 22.0234C 95.3125 22.1641 94.7422 22.2344 94.125 22.2344ZM 93.8438 10.8672C 93.4062 10.8672 92.9922 10.9492 92.6016 11.1133C 92.2109 11.2695 91.8594 11.5039 91.5469 11.8164C 91.2344 12.1211 90.9688 12.5 90.75 12.9531C 90.5391 13.3984 90.3906 13.9141 90.3047 14.5L 97.125 14.5L 97.125 14.3359C 97.1016 13.9141 97.0195 13.4961 96.8789 13.082C 96.7461 12.668 96.5469 12.2969 96.2812 11.9688C 96.0156 11.6406 95.6797 11.375 95.2734 11.1719C 94.875 10.9688 94.3984 10.8672 93.8438 10.8672ZM 111.363 18.6367C 111.363 18.3789 111.312 18.1484 111.211 17.9453C 111.109 17.7344 110.938 17.543 110.695 17.3711C 110.453 17.1992 110.133 17.043 109.734 16.9023C 109.336 16.7539 108.84 16.6211 108.246 16.5039C 107.52 16.3555 106.855 16.1758 106.254 15.9648C 105.66 15.7539 105.148 15.5039 104.719 15.2148C 104.297 14.918 103.969 14.5742 103.734 14.1836C 103.5 13.7852 103.383 13.3242 103.383 12.8008C 103.383 12.2852 103.504 11.8047 103.746 11.3594C 103.988 10.9062 104.328 10.5117 104.766 10.1758C 105.203 9.83984 105.723 9.57422 106.324 9.37891C 106.934 9.18359 107.602 9.08594 108.328 9.08594C 109.109 9.08594 109.812 9.1875 110.438 9.39062C 111.062 9.59375 111.594 9.875 112.031 10.2344C 112.469 10.5938 112.805 11.0156 113.039 11.5C 113.281 11.9766 113.402 12.4922 113.402 13.0469L 111.234 13.0469C 111.234 12.7734 111.164 12.5078 111.023 12.25C 110.883 11.9844 110.688 11.75 110.438 11.5469C 110.188 11.3438 109.883 11.1797 109.523 11.0547C 109.172 10.9297 108.773 10.8672 108.328 10.8672C 107.867 10.8672 107.461 10.918 107.109 11.0195C 106.766 11.1211 106.477 11.2578 106.242 11.4297C 106.016 11.6016 105.844 11.8008 105.727 12.0273C 105.609 12.2539 105.551 12.4883 105.551 12.7305C 105.551 12.9805 105.598 13.2031 105.691 13.3984C 105.785 13.5938 105.945 13.7695 106.172 13.9258C 106.406 14.082 106.715 14.2227 107.098 14.3477C 107.488 14.4727 107.98 14.5938 108.574 14.7109C 109.355 14.875 110.055 15.0664 110.672 15.2852C 111.289 15.4961 111.809 15.7539 112.23 16.0586C 112.652 16.3555 112.973 16.7031 113.191 17.1016C 113.418 17.5 113.531 17.9609 113.531 18.4844C 113.531 19.0469 113.402 19.5586 113.145 20.0195C 112.895 20.4805 112.543 20.875 112.09 21.2031C 111.637 21.5312 111.094 21.7852 110.461 21.9648C 109.828 22.1445 109.137 22.2344 108.387 22.2344C 107.527 22.2344 106.762 22.1211 106.09 21.8945C 105.418 21.6602 104.848 21.3555 104.379 20.9805C 103.918 20.5977 103.562 20.1562 103.312 19.6562C 103.07 19.1562 102.949 18.6367 102.949 18.0977L 105.117 18.0977C 105.148 18.543 105.266 18.918 105.469 19.2227C 105.68 19.5273 105.938 19.7734 106.242 19.9609C 106.555 20.1484 106.898 20.2812 107.273 20.3594C 107.648 20.4375 108.02 20.4766 108.387 20.4766C 109.301 20.4766 110.023 20.3086 110.555 19.9727C 111.086 19.6367 111.355 19.1914 111.363 18.6367Z"/>
<path id="path6_fill" d="M 0 24.6094L 115.301 24.6094L 115.301 25.7812L 0 25.7812L 0 24.6094Z"/>
<path id="path7_fill" d="M 142.969 56.375C 142.969 55.3281 142.727 54.4453 142.242 53.7266C 141.773 53.0078 141.164 52.4063 140.414 51.9219C 139.664 51.4219 138.836 51.0078 137.93 50.6797C 137.039 50.3516 136.18 50.0547 135.352 49.7891C 134.148 49.3984 132.922 48.9297 131.672 48.3828C 130.438 47.8359 129.305 47.1641 128.273 46.3672C 127.258 45.5703 126.422 44.6328 125.766 43.5547C 125.125 42.4609 124.805 41.1797 124.805 39.7109C 124.805 38.2422 125.125 36.9297 125.766 35.7734C 126.422 34.6172 127.273 33.6406 128.32 32.8438C 129.367 32.0469 130.555 31.4453 131.883 31.0391C 133.211 30.6172 134.547 30.4062 135.891 30.4062C 137.375 30.4062 138.805 30.6562 140.18 31.1562C 141.555 31.6406 142.773 32.3281 143.836 33.2188C 144.898 34.1094 145.75 35.1875 146.391 36.4531C 147.031 37.7188 147.367 39.1328 147.398 40.6953L 142.945 40.6953C 142.82 39.7109 142.578 38.8203 142.219 38.0234C 141.859 37.2109 141.383 36.5156 140.789 35.9375C 140.195 35.3594 139.484 34.9141 138.656 34.6016C 137.844 34.2734 136.922 34.1094 135.891 34.1094C 135.063 34.1094 134.25 34.2266 133.453 34.4609C 132.672 34.6953 131.969 35.0469 131.344 35.5156C 130.734 35.9844 130.242 36.5625 129.867 37.25C 129.508 37.9375 129.328 38.7344 129.328 39.6406C 129.344 40.625 129.594 41.4609 130.078 42.1484C 130.562 42.8203 131.172 43.3906 131.906 43.8594C 132.656 44.3281 133.461 44.7188 134.32 45.0312C 135.195 45.3437 136.016 45.6172 136.781 45.8516C 137.625 46.1172 138.477 46.4219 139.336 46.7656C 140.195 47.0938 141.023 47.4766 141.82 47.9141C 142.617 48.3516 143.359 48.8438 144.047 49.3906C 144.734 49.9375 145.336 50.5625 145.852 51.2656C 146.367 51.9531 146.766 52.7188 147.047 53.5625C 147.344 54.3906 147.492 55.3125 147.492 56.3281C 147.492 57.8594 147.148 59.1953 146.461 60.3359C 145.789 61.4766 144.914 62.4297 143.836 63.1953C 142.758 63.9453 141.539 64.5156 140.18 64.9062C 138.82 65.2812 137.461 65.4688 136.102 65.4688C 134.586 65.4688 133.102 65.2344 131.648 64.7656C 130.195 64.2969 128.891 63.625 127.734 62.75C 126.594 61.8594 125.664 60.7812 124.945 59.5156C 124.227 58.2344 123.844 56.7813 123.797 55.1562L 128.227 55.1562C 128.367 56.2188 128.656 57.1641 129.094 57.9922C 129.531 58.8047 130.094 59.5 130.781 60.0781C 131.469 60.6406 132.258 61.0703 133.148 61.3672C 134.055 61.6484 135.039 61.7891 136.102 61.7891C 136.945 61.7891 137.773 61.6875 138.586 61.4844C 139.414 61.2656 140.148 60.9375 140.789 60.5C 141.43 60.0469 141.953 59.4844 142.359 58.8125C 142.766 58.125 142.969 57.3125 142.969 56.375ZM 164.203 33.5L 164.203 39.6406L 173.859 39.6406L 173.859 42.9922L 164.203 42.9922L 164.203 56.7734C 164.203 57.7578 164.328 58.5703 164.578 59.2109C 164.828 59.8516 165.172 60.3672 165.609 60.7578C 166.047 61.1328 166.547 61.3984 167.109 61.5547C 167.688 61.7109 168.297 61.7891 168.938 61.7891C 169.406 61.7891 169.891 61.7656 170.391 61.7188C 170.891 61.6562 171.375 61.5859 171.844 61.5078C 172.328 61.4297 172.773 61.3516 173.18 61.2734C 173.602 61.1797 173.945 61.1016 174.211 61.0391L 174.82 64.1094C 174.461 64.3281 174.023 64.5234 173.508 64.6953C 172.992 64.8516 172.43 64.9844 171.82 65.0938C 171.211 65.2187 170.562 65.3125 169.875 65.375C 169.203 65.4375 168.531 65.4688 167.859 65.4688C 166.734 65.4688 165.68 65.3125 164.695 65C 163.727 64.6719 162.883 64.1641 162.164 63.4766C 161.445 62.7734 160.875 61.875 160.453 60.7812C 160.047 59.6719 159.844 58.3359 159.844 56.7734L 159.844 42.9922L 153.188 42.9922L 153.188 39.6406L 159.844 39.6406L 159.844 33.5L 164.203 33.5ZM 199.219 61.5078C 198.375 62.7578 197.32 63.7344 196.055 64.4375C 194.789 65.125 193.328 65.4688 191.672 65.4688C 190.344 65.4688 189.141 65.2656 188.062 64.8594C 186.984 64.4375 186.062 63.7891 185.297 62.9141C 184.531 62.0391 183.938 60.9297 183.516 59.5859C 183.109 58.2266 182.906 56.6016 182.906 54.7109L 182.906 39.6406L 187.242 39.6406L 187.242 54.7578C 187.242 56.1328 187.352 57.2734 187.57 58.1797C 187.789 59.0859 188.117 59.8125 188.555 60.3594C 188.992 60.8906 189.523 61.2656 190.148 61.4844C 190.789 61.7031 191.523 61.8125 192.352 61.8125C 194.117 61.8125 195.539 61.4531 196.617 60.7344C 197.711 60.0156 198.523 59.0469 199.055 57.8281L 199.055 39.6406L 203.414 39.6406L 203.414 65L 199.477 65L 199.219 61.5078ZM 210.773 52.1094C 210.773 50.2187 211.008 48.4844 211.477 46.9062C 211.961 45.3125 212.641 43.9453 213.516 42.8047C 214.406 41.6641 215.477 40.7734 216.727 40.1328C 217.977 39.4922 219.375 39.1719 220.922 39.1719C 222.438 39.1719 223.758 39.4297 224.883 39.9453C 226.023 40.4453 227.008 41.1797 227.836 42.1484L 227.836 29L 232.172 29L 232.172 65L 228.188 65L 228 62.3281C 227.156 63.3594 226.148 64.1406 224.977 64.6719C 223.805 65.2031 222.438 65.4688 220.875 65.4688C 219.344 65.4688 217.953 65.1406 216.703 64.4844C 215.469 63.8281 214.414 62.9219 213.539 61.7656C 212.664 60.6094 211.984 59.25 211.5 57.6875C 211.016 56.1094 210.773 54.4141 210.773 52.6016L 210.773 52.1094ZM 215.109 52.6016C 215.109 53.8359 215.242 55.0078 215.508 56.1172C 215.773 57.2266 216.18 58.2031 216.727 59.0469C 217.289 59.8906 218 60.5625 218.859 61.0625C 219.719 61.5469 220.75 61.7891 221.953 61.7891C 222.687 61.7891 223.352 61.7031 223.945 61.5312C 224.539 61.3594 225.078 61.1172 225.562 60.8047C 226.047 60.4766 226.477 60.0938 226.852 59.6562C 227.227 59.2031 227.555 58.7031 227.836 58.1562L 227.836 46.3906C 227.273 45.3594 226.516 44.5156 225.562 43.8594C 224.609 43.1875 223.422 42.8516 222 42.8516C 220.781 42.8516 219.734 43.1016 218.859 43.6016C 218 44.1016 217.289 44.7812 216.727 45.6406C 216.18 46.4844 215.773 47.4688 215.508 48.5938C 215.242 49.7031 215.109 50.875 215.109 52.1094L 215.109 52.6016ZM 251.625 65.4688C 249.844 65.4688 248.203 65.1641 246.703 64.5547C 245.219 63.9453 243.945 63.0937 242.883 62C 241.82 60.9062 240.992 59.6094 240.398 58.1094C 239.805 56.6094 239.508 54.9766 239.508 53.2109L 239.508 52.2266C 239.508 50.1797 239.836 48.3516 240.492 46.7422C 241.148 45.1172 242.016 43.75 243.094 42.6406C 244.187 41.5156 245.422 40.6563 246.797 40.0625C 248.188 39.4687 249.609 39.1719 251.062 39.1719C 252.891 39.1719 254.484 39.4922 255.844 40.1328C 257.219 40.7578 258.359 41.6328 259.266 42.7578C 260.172 43.8672 260.844 45.1797 261.281 46.6953C 261.734 48.2109 261.961 49.8516 261.961 51.6172L 261.961 53.5625L 243.844 53.5625C 243.891 54.7188 244.109 55.8047 244.5 56.8203C 244.906 57.8359 245.453 58.7266 246.141 59.4922C 246.844 60.2422 247.68 60.8359 248.648 61.2734C 249.617 61.7109 250.688 61.9297 251.859 61.9297C 253.406 61.9297 254.781 61.6172 255.984 60.9922C 257.187 60.3672 258.188 59.5391 258.984 58.5078L 261.633 60.5703C 261.211 61.2109 260.68 61.8281 260.039 62.4219C 259.414 63 258.687 63.5156 257.859 63.9688C 257.031 64.4219 256.094 64.7813 255.047 65.0469C 254 65.3281 252.859 65.4688 251.625 65.4688ZM 251.062 42.7344C 250.188 42.7344 249.359 42.8984 248.578 43.2266C 247.797 43.5391 247.094 44.0078 246.469 44.6328C 245.844 45.2422 245.312 46 244.875 46.9062C 244.453 47.7969 244.156 48.8281 243.984 50L 257.625 50L 257.625 49.6719C 257.578 48.8281 257.414 47.9922 257.133 47.1641C 256.867 46.3359 256.469 45.5938 255.938 44.9375C 255.406 44.2812 254.734 43.75 253.922 43.3438C 253.125 42.9375 252.172 42.7344 251.062 42.7344ZM 273.141 39.6406L 273.445 43.3906C 274.367 42.0781 275.5 41.0547 276.844 40.3203C 278.187 39.5703 279.687 39.1875 281.344 39.1719C 282.672 39.1719 283.875 39.3594 284.953 39.7344C 286.047 40.1094 286.977 40.6953 287.742 41.4922C 288.508 42.2891 289.094 43.3047 289.5 44.5391C 289.922 45.7578 290.133 47.2109 290.133 48.8984L 290.133 65L 285.797 65L 285.797 48.9922C 285.797 47.8672 285.672 46.9141 285.422 46.1328C 285.172 45.3516 284.797 44.7188 284.297 44.2344C 283.812 43.75 283.211 43.3984 282.492 43.1797C 281.789 42.9609 280.977 42.8516 280.055 42.8516C 278.602 42.8516 277.32 43.2188 276.211 43.9531C 275.117 44.6719 274.242 45.625 273.586 46.8125L 273.586 65L 269.25 65L 269.25 39.6406L 273.141 39.6406ZM 308.344 33.5L 308.344 39.6406L 318 39.6406L 318 42.9922L 308.344 42.9922L 308.344 56.7734C 308.344 57.7578 308.469 58.5703 308.719 59.2109C 308.969 59.8516 309.312 60.3672 309.75 60.7578C 310.188 61.1328 310.688 61.3984 311.25 61.5547C 311.828 61.7109 312.438 61.7891 313.078 61.7891C 313.547 61.7891 314.031 61.7656 314.531 61.7188C 315.031 61.6562 315.516 61.5859 315.984 61.5078C 316.469 61.4297 316.914 61.3516 317.32 61.2734C 317.742 61.1797 318.086 61.1016 318.352 61.0391L 318.961 64.1094C 318.602 64.3281 318.164 64.5234 317.648 64.6953C 317.133 64.8516 316.57 64.9844 315.961 65.0938C 315.352 65.2187 314.703 65.3125 314.016 65.375C 313.344 65.4375 312.672 65.4688 312 65.4688C 310.875 65.4688 309.82 65.3125 308.836 65C 307.867 64.6719 307.023 64.1641 306.305 63.4766C 305.586 62.7734 305.016 61.875 304.594 60.7812C 304.187 59.6719 303.984 58.3359 303.984 56.7734L 303.984 42.9922L 297.328 42.9922L 297.328 39.6406L 303.984 39.6406L 303.984 33.5L 308.344 33.5ZM 377.109 65L 372.703 65L 359.461 39.5L 359.391 65L 355.008 65L 355.008 30.875L 359.414 30.875L 372.656 56.3281L 372.727 30.875L 377.109 30.875L 377.109 65ZM 401.227 65C 401.055 64.6719 400.914 64.2656 400.805 63.7812C 400.711 63.2812 400.641 62.7656 400.594 62.2344C 400.156 62.6719 399.664 63.0859 399.117 63.4766C 398.586 63.8672 397.992 64.2109 397.336 64.5078C 396.695 64.8047 396.008 65.0391 395.273 65.2109C 394.539 65.3828 393.758 65.4688 392.93 65.4688C 391.586 65.4688 390.367 65.2734 389.273 64.8828C 388.195 64.4922 387.273 63.9688 386.508 63.3125C 385.758 62.6406 385.172 61.8516 384.75 60.9453C 384.344 60.0234 384.141 59.0312 384.141 57.9688C 384.141 56.5781 384.414 55.3594 384.961 54.3125C 385.523 53.2656 386.313 52.3984 387.328 51.7109C 388.344 51.0078 389.563 50.4844 390.984 50.1406C 392.422 49.7969 394.023 49.625 395.789 49.625L 400.523 49.625L 400.523 47.6328C 400.523 46.8672 400.383 46.1797 400.102 45.5703C 399.82 44.9609 399.422 44.4453 398.906 44.0234C 398.391 43.5859 397.758 43.25 397.008 43.0156C 396.273 42.7812 395.445 42.6641 394.523 42.6641C 393.664 42.6641 392.891 42.7734 392.203 42.9922C 391.531 43.2109 390.961 43.5 390.492 43.8594C 390.023 44.2187 389.656 44.6484 389.391 45.1484C 389.141 45.6328 389.016 46.1406 389.016 46.6719L 384.656 46.6719C 384.672 45.75 384.906 44.8438 385.359 43.9531C 385.828 43.0625 386.492 42.2656 387.352 41.5625C 388.227 40.8438 389.281 40.2656 390.516 39.8281C 391.766 39.3906 393.18 39.1719 394.758 39.1719C 396.195 39.1719 397.531 39.3516 398.766 39.7109C 400 40.0547 401.062 40.5859 401.953 41.3047C 402.859 42.0078 403.57 42.8906 404.086 43.9531C 404.602 45.0156 404.859 46.2578 404.859 47.6797L 404.859 59.4688C 404.859 60.3125 404.938 61.2109 405.094 62.1641C 405.25 63.1016 405.469 63.9219 405.75 64.625L 405.75 65L 401.227 65ZM 393.562 61.6953C 394.406 61.6953 395.195 61.5859 395.93 61.3672C 396.664 61.1484 397.328 60.8594 397.922 60.5C 398.531 60.1406 399.055 59.7344 399.492 59.2812C 399.93 58.8125 400.273 58.3281 400.523 57.8281L 400.523 52.6953L 396.492 52.6953C 393.961 52.6953 391.992 53.0703 390.586 53.8203C 389.18 54.5703 388.477 55.75 388.477 57.3594C 388.477 57.9844 388.578 58.5625 388.781 59.0938C 389 59.625 389.32 60.0859 389.742 60.4766C 390.164 60.8516 390.695 61.1484 391.336 61.3672C 391.977 61.5859 392.719 61.6953 393.562 61.6953ZM 415.383 39.6406L 415.5 42.0312C 416.016 41.1406 416.687 40.4453 417.516 39.9453C 418.359 39.4453 419.375 39.1875 420.562 39.1719C 422.891 39.1719 424.445 40.0781 425.227 41.8906C 425.727 41.0781 426.383 40.4297 427.195 39.9453C 428.023 39.4453 429.023 39.1875 430.195 39.1719C 432.055 39.1719 433.484 39.7422 434.484 40.8828C 435.484 42.0234 435.984 43.75 435.984 46.0625L 435.984 65L 431.859 65L 431.859 46.0156C 431.859 43.8906 430.883 42.8359 428.93 42.8516C 428.414 42.8516 427.969 42.9219 427.594 43.0625C 427.219 43.2031 426.906 43.3984 426.656 43.6484C 426.406 43.8828 426.211 44.1641 426.07 44.4922C 425.93 44.8047 425.836 45.1328 425.789 45.4766L 425.789 65L 421.664 65L 421.664 45.9922C 421.664 44.9766 421.437 44.1953 420.984 43.6484C 420.531 43.1016 419.812 42.8359 418.828 42.8516C 417.922 42.8516 417.219 43.0313 416.719 43.3906C 416.219 43.75 415.852 44.2266 415.617 44.8203L 415.617 65L 411.492 65L 411.492 39.6406L 415.383 39.6406ZM 453.422 65.4688C 451.641 65.4688 450 65.1641 448.5 64.5547C 447.016 63.9453 445.742 63.0937 444.68 62C 443.617 60.9062 442.789 59.6094 442.195 58.1094C 441.602 56.6094 441.305 54.9766 441.305 53.2109L 441.305 52.2266C 441.305 50.1797 441.633 48.3516 442.289 46.7422C 442.945 45.1172 443.812 43.75 444.891 42.6406C 445.984 41.5156 447.219 40.6563 448.594 40.0625C 449.984 39.4687 451.406 39.1719 452.859 39.1719C 454.688 39.1719 456.281 39.4922 457.641 40.1328C 459.016 40.7578 460.156 41.6328 461.062 42.7578C 461.969 43.8672 462.641 45.1797 463.078 46.6953C 463.531 48.2109 463.758 49.8516 463.758 51.6172L 463.758 53.5625L 445.641 53.5625C 445.688 54.7188 445.906 55.8047 446.297 56.8203C 446.703 57.8359 447.25 58.7266 447.938 59.4922C 448.641 60.2422 449.477 60.8359 450.445 61.2734C 451.414 61.7109 452.484 61.9297 453.656 61.9297C 455.203 61.9297 456.578 61.6172 457.781 60.9922C 458.984 60.3672 459.984 59.5391 460.781 58.5078L 463.43 60.5703C 463.008 61.2109 462.477 61.8281 461.836 62.4219C 461.211 63 460.484 63.5156 459.656 63.9688C 458.828 64.4219 457.891 64.7813 456.844 65.0469C 455.797 65.3281 454.656 65.4688 453.422 65.4688ZM 452.859 42.7344C 451.984 42.7344 451.156 42.8984 450.375 43.2266C 449.594 43.5391 448.891 44.0078 448.266 44.6328C 447.641 45.2422 447.109 46 446.672 46.9062C 446.25 47.7969 445.953 48.8281 445.781 50L 459.422 50L 459.422 49.6719C 459.375 48.8281 459.211 47.9922 458.93 47.1641C 458.664 46.3359 458.266 45.5938 457.734 44.9375C 457.203 44.2812 456.531 43.75 455.719 43.3438C 454.922 42.9375 453.969 42.7344 452.859 42.7344Z"/>
<path id="path8_fill" d="M 0 0L 490 0L 490 62L 0 62L 0 0Z"/>
<path id="path9_stroke_2x" d="M 0 0L 0 -1L -1 -1L -1 0L 0 0ZM 490 0L 491 0L 491 -1L 490 -1L 490 0ZM 490 62L 490 63L 491 63L 491 62L 490 62ZM 0 62L -1 62L -1 63L 0 63L 0 62ZM 0 1L 490 1L 490 -1L 0 -1L 0 1ZM 489 0L 489 62L 491 62L 491 0L 489 0ZM 490 61L 0 61L 0 63L 490 63L 490 61ZM 1 62L 1 0L -1 0L -1 62L 1 62Z"/>
<path id="path10_fill" d="M 0 15C 0 6.71573 6.71573 0 15 0L 183 0C 191.284 0 198 6.71573 198 15L 198 32C 198 40.2843 191.284 47 183 47L 15 47C 6.71573 47 0 40.2843 0 32L 0 15Z"/>
<path id="path11_fill" d="M 49.9062 24.582L 44.2109 24.582L 42.8398 29L 40.6719 29L 46.1797 11.9375L 47.9961 11.9375L 53.4102 29L 51.2539 29L 49.9062 24.582ZM 44.7969 22.6953L 49.332 22.6953L 47.082 15.2891L 44.7969 22.6953ZM 55.7656 22.5547C 55.7656 21.6094 55.8828 20.7422 56.1172 19.9531C 56.3594 19.1562 56.6992 18.4727 57.1367 17.9023C 57.582 17.332 58.1172 16.8867 58.7422 16.5664C 59.3672 16.2461 60.0664 16.0859 60.8398 16.0859C 61.5977 16.0859 62.2578 16.2148 62.8203 16.4727C 63.3906 16.7227 63.8828 17.0898 64.2969 17.5742L 64.2969 11L 66.4648 11L 66.4648 29L 64.4727 29L 64.3789 27.6641C 63.957 28.1797 63.4531 28.5703 62.8672 28.8359C 62.2812 29.1016 61.5977 29.2344 60.8164 29.2344C 60.0508 29.2344 59.3555 29.0703 58.7305 28.7422C 58.1133 28.4141 57.5859 27.9609 57.1484 27.3828C 56.7109 26.8047 56.3711 26.125 56.1289 25.3438C 55.8867 24.5547 55.7656 23.707 55.7656 22.8008L 55.7656 22.5547ZM 57.9336 22.8008C 57.9336 23.418 58 24.0039 58.1328 24.5586C 58.2656 25.1133 58.4688 25.6016 58.7422 26.0234C 59.0234 26.4453 59.3789 26.7812 59.8086 27.0312C 60.2383 27.2734 60.7539 27.3945 61.3555 27.3945C 61.7227 27.3945 62.0547 27.3516 62.3516 27.2656C 62.6484 27.1797 62.918 27.0586 63.1602 26.9023C 63.4023 26.7383 63.6172 26.5469 63.8047 26.3281C 63.9922 26.1016 64.1562 25.8516 64.2969 25.5781L 64.2969 19.6953C 64.0156 19.1797 63.6367 18.7578 63.1602 18.4297C 62.6836 18.0938 62.0898 17.9258 61.3789 17.9258C 60.7695 17.9258 60.2461 18.0508 59.8086 18.3008C 59.3789 18.5508 59.0234 18.8906 58.7422 19.3203C 58.4688 19.7422 58.2656 20.2344 58.1328 20.7969C 58 21.3516 57.9336 21.9375 57.9336 22.5547L 57.9336 22.8008ZM 70.1797 22.5547C 70.1797 21.6094 70.2969 20.7422 70.5312 19.9531C 70.7734 19.1562 71.1133 18.4727 71.5508 17.9023C 71.9961 17.332 72.5312 16.8867 73.1562 16.5664C 73.7812 16.2461 74.4805 16.0859 75.2539 16.0859C 76.0117 16.0859 76.6719 16.2148 77.2344 16.4727C 77.8047 16.7227 78.2969 17.0898 78.7109 17.5742L 78.7109 11L 80.8789 11L 80.8789 29L 78.8867 29L 78.793 27.6641C 78.3711 28.1797 77.8672 28.5703 77.2812 28.8359C 76.6953 29.1016 76.0117 29.2344 75.2305 29.2344C 74.4648 29.2344 73.7695 29.0703 73.1445 28.7422C 72.5273 28.4141 72 27.9609 71.5625 27.3828C 71.125 26.8047 70.7852 26.125 70.543 25.3438C 70.3008 24.5547 70.1797 23.707 70.1797 22.8008L 70.1797 22.5547ZM 72.3477 22.8008C 72.3477 23.418 72.4141 24.0039 72.5469 24.5586C 72.6797 25.1133 72.8828 25.6016 73.1562 26.0234C 73.4375 26.4453 73.793 26.7812 74.2227 27.0312C 74.6523 27.2734 75.168 27.3945 75.7695 27.3945C 76.1367 27.3945 76.4688 27.3516 76.7656 27.2656C 77.0625 27.1797 77.332 27.0586 77.5742 26.9023C 77.8164 26.7383 78.0312 26.5469 78.2188 26.3281C 78.4062 26.1016 78.5703 25.8516 78.7109 25.5781L 78.7109 19.6953C 78.4297 19.1797 78.0508 18.7578 77.5742 18.4297C 77.0977 18.0938 76.5039 17.9258 75.793 17.9258C 75.1836 17.9258 74.6602 18.0508 74.2227 18.3008C 73.793 18.5508 73.4375 18.8906 73.1562 19.3203C 72.8828 19.7422 72.6797 20.2344 72.5469 20.7969C 72.4141 21.3516 72.3477 21.9375 72.3477 22.5547L 72.3477 22.8008ZM 108.348 24.6875C 108.348 24.1641 108.227 23.7227 107.984 23.3633C 107.75 23.0039 107.445 22.7031 107.07 22.4609C 106.695 22.2109 106.281 22.0039 105.828 21.8398C 105.383 21.6758 104.953 21.5273 104.539 21.3945C 103.938 21.1992 103.324 20.9648 102.699 20.6914C 102.082 20.418 101.516 20.082 101 19.6836C 100.492 19.2852 100.074 18.8164 99.7461 18.2773C 99.4258 17.7305 99.2656 17.0898 99.2656 16.3555C 99.2656 15.6211 99.4258 14.9648 99.7461 14.3867C 100.074 13.8086 100.5 13.3203 101.023 12.9219C 101.547 12.5234 102.141 12.2227 102.805 12.0195C 103.469 11.8086 104.137 11.7031 104.809 11.7031C 105.551 11.7031 106.266 11.8281 106.953 12.0781C 107.641 12.3203 108.25 12.6641 108.781 13.1094C 109.312 13.5547 109.738 14.0938 110.059 14.7266C 110.379 15.3594 110.547 16.0664 110.562 16.8477L 108.336 16.8477C 108.273 16.3555 108.152 15.9102 107.973 15.5117C 107.793 15.1055 107.555 14.7578 107.258 14.4688C 106.961 14.1797 106.605 13.957 106.191 13.8008C 105.785 13.6367 105.324 13.5547 104.809 13.5547C 104.395 13.5547 103.988 13.6133 103.59 13.7305C 103.199 13.8477 102.848 14.0234 102.535 14.2578C 102.23 14.4922 101.984 14.7812 101.797 15.125C 101.617 15.4688 101.527 15.8672 101.527 16.3203C 101.535 16.8125 101.66 17.2305 101.902 17.5742C 102.145 17.9102 102.449 18.1953 102.816 18.4297C 103.191 18.6641 103.594 18.8594 104.023 19.0156C 104.461 19.1719 104.871 19.3086 105.254 19.4258C 105.676 19.5586 106.102 19.7109 106.531 19.8828C 106.961 20.0469 107.375 20.2383 107.773 20.457C 108.172 20.6758 108.543 20.9219 108.887 21.1953C 109.23 21.4688 109.531 21.7812 109.789 22.1328C 110.047 22.4766 110.246 22.8594 110.387 23.2812C 110.535 23.6953 110.609 24.1562 110.609 24.6641C 110.609 25.4297 110.438 26.0977 110.094 26.668C 109.758 27.2383 109.32 27.7148 108.781 28.0977C 108.242 28.4727 107.633 28.7578 106.953 28.9531C 106.273 29.1406 105.594 29.2344 104.914 29.2344C 104.156 29.2344 103.414 29.1172 102.688 28.8828C 101.961 28.6484 101.309 28.3125 100.73 27.875C 100.16 27.4297 99.6953 26.8906 99.3359 26.2578C 98.9766 25.6172 98.7852 24.8906 98.7617 24.0781L 100.977 24.0781C 101.047 24.6094 101.191 25.082 101.41 25.4961C 101.629 25.9023 101.91 26.25 102.254 26.5391C 102.598 26.8203 102.992 27.0352 103.438 27.1836C 103.891 27.3242 104.383 27.3945 104.914 27.3945C 105.336 27.3945 105.75 27.3438 106.156 27.2422C 106.57 27.1328 106.938 26.9688 107.258 26.75C 107.578 26.5234 107.84 26.2422 108.043 25.9062C 108.246 25.5625 108.348 25.1562 108.348 24.6875ZM 118.965 13.25L 118.965 16.3203L 123.793 16.3203L 123.793 17.9961L 118.965 17.9961L 118.965 24.8867C 118.965 25.3789 119.027 25.7852 119.152 26.1055C 119.277 26.4258 119.449 26.6836 119.668 26.8789C 119.887 27.0664 120.137 27.1992 120.418 27.2773C 120.707 27.3555 121.012 27.3945 121.332 27.3945C 121.566 27.3945 121.809 27.3828 122.059 27.3594C 122.309 27.3281 122.551 27.293 122.785 27.2539C 123.027 27.2148 123.25 27.1758 123.453 27.1367C 123.664 27.0898 123.836 27.0508 123.969 27.0195L 124.273 28.5547C 124.094 28.6641 123.875 28.7617 123.617 28.8477C 123.359 28.9258 123.078 28.9922 122.773 29.0469C 122.469 29.1094 122.145 29.1562 121.801 29.1875C 121.465 29.2188 121.129 29.2344 120.793 29.2344C 120.23 29.2344 119.703 29.1562 119.211 29C 118.727 28.8359 118.305 28.582 117.945 28.2383C 117.586 27.8867 117.301 27.4375 117.09 26.8906C 116.887 26.3359 116.785 25.668 116.785 24.8867L 116.785 17.9961L 113.457 17.9961L 113.457 16.3203L 116.785 16.3203L 116.785 13.25L 118.965 13.25ZM 136.473 27.2539C 136.051 27.8789 135.523 28.3672 134.891 28.7188C 134.258 29.0625 133.527 29.2344 132.699 29.2344C 132.035 29.2344 131.434 29.1328 130.895 28.9297C 130.355 28.7188 129.895 28.3945 129.512 27.957C 129.129 27.5195 128.832 26.9648 128.621 26.293C 128.418 25.6133 128.316 24.8008 128.316 23.8555L 128.316 16.3203L 130.484 16.3203L 130.484 23.8789C 130.484 24.5664 130.539 25.1367 130.648 25.5898C 130.758 26.043 130.922 26.4062 131.141 26.6797C 131.359 26.9453 131.625 27.1328 131.938 27.2422C 132.258 27.3516 132.625 27.4062 133.039 27.4062C 133.922 27.4062 134.633 27.2266 135.172 26.8672C 135.719 26.5078 136.125 26.0234 136.391 25.4141L 136.391 16.3203L 138.57 16.3203L 138.57 29L 136.602 29L 136.473 27.2539ZM 142.25 22.5547C 142.25 21.6094 142.367 20.7422 142.602 19.9531C 142.844 19.1562 143.184 18.4727 143.621 17.9023C 144.066 17.332 144.602 16.8867 145.227 16.5664C 145.852 16.2461 146.551 16.0859 147.324 16.0859C 148.082 16.0859 148.742 16.2148 149.305 16.4727C 149.875 16.7227 150.367 17.0898 150.781 17.5742L 150.781 11L 152.949 11L 152.949 29L 150.957 29L 150.863 27.6641C 150.441 28.1797 149.938 28.5703 149.352 28.8359C 148.766 29.1016 148.082 29.2344 147.301 29.2344C 146.535 29.2344 145.84 29.0703 145.215 28.7422C 144.598 28.4141 144.07 27.9609 143.633 27.3828C 143.195 26.8047 142.855 26.125 142.613 25.3438C 142.371 24.5547 142.25 23.707 142.25 22.8008L 142.25 22.5547ZM 144.418 22.8008C 144.418 23.418 144.484 24.0039 144.617 24.5586C 144.75 25.1133 144.953 25.6016 145.227 26.0234C 145.508 26.4453 145.863 26.7812 146.293 27.0312C 146.723 27.2734 147.238 27.3945 147.84 27.3945C 148.207 27.3945 148.539 27.3516 148.836 27.2656C 149.133 27.1797 149.402 27.0586 149.645 26.9023C 149.887 26.7383 150.102 26.5469 150.289 26.3281C 150.477 26.1016 150.641 25.8516 150.781 25.5781L 150.781 19.6953C 150.5 19.1797 150.121 18.7578 149.645 18.4297C 149.168 18.0938 148.574 17.9258 147.863 17.9258C 147.254 17.9258 146.73 18.0508 146.293 18.3008C 145.863 18.5508 145.508 18.8906 145.227 19.3203C 144.953 19.7422 144.75 20.2344 144.617 20.7969C 144.484 21.3516 144.418 21.9375 144.418 22.5547L 144.418 22.8008ZM 162.676 29.2344C 161.785 29.2344 160.965 29.082 160.215 28.7773C 159.473 28.4727 158.836 28.0469 158.305 27.5C 157.773 26.9531 157.359 26.3047 157.062 25.5547C 156.766 24.8047 156.617 23.9883 156.617 23.1055L 156.617 22.6133C 156.617 21.5898 156.781 20.6758 157.109 19.8711C 157.438 19.0586 157.871 18.375 158.41 17.8203C 158.957 17.2578 159.574 16.8281 160.262 16.5312C 160.957 16.2344 161.668 16.0859 162.395 16.0859C 163.309 16.0859 164.105 16.2461 164.785 16.5664C 165.473 16.8789 166.043 17.3164 166.496 17.8789C 166.949 18.4336 167.285 19.0898 167.504 19.8477C 167.73 20.6055 167.844 21.4258 167.844 22.3086L 167.844 23.2812L 158.785 23.2812C 158.809 23.8594 158.918 24.4023 159.113 24.9102C 159.316 25.418 159.59 25.8633 159.934 26.2461C 160.285 26.6211 160.703 26.918 161.188 27.1367C 161.672 27.3555 162.207 27.4648 162.793 27.4648C 163.566 27.4648 164.254 27.3086 164.855 26.9961C 165.457 26.6836 165.957 26.2695 166.355 25.7539L 167.68 26.7852C 167.469 27.1055 167.203 27.4141 166.883 27.7109C 166.57 28 166.207 28.2578 165.793 28.4844C 165.379 28.7109 164.91 28.8906 164.387 29.0234C 163.863 29.1641 163.293 29.2344 162.676 29.2344ZM 162.395 17.8672C 161.957 17.8672 161.543 17.9492 161.152 18.1133C 160.762 18.2695 160.41 18.5039 160.098 18.8164C 159.785 19.1211 159.52 19.5 159.301 19.9531C 159.09 20.3984 158.941 20.9141 158.855 21.5L 165.676 21.5L 165.676 21.3359C 165.652 20.9141 165.57 20.4961 165.43 20.082C 165.297 19.668 165.098 19.2969 164.832 18.9688C 164.566 18.6406 164.23 18.375 163.824 18.1719C 163.426 17.9688 162.949 17.8672 162.395 17.8672ZM 173.434 16.3203L 173.586 18.1953C 174.047 17.5391 174.613 17.0273 175.285 16.6602C 175.957 16.2852 176.707 16.0938 177.535 16.0859C 178.199 16.0859 178.801 16.1797 179.34 16.3672C 179.887 16.5547 180.352 16.8477 180.734 17.2461C 181.117 17.6445 181.41 18.1523 181.613 18.7695C 181.824 19.3789 181.93 20.1055 181.93 20.9492L 181.93 29L 179.762 29L 179.762 20.9961C 179.762 20.4336 179.699 19.957 179.574 19.5664C 179.449 19.1758 179.262 18.8594 179.012 18.6172C 178.77 18.375 178.469 18.1992 178.109 18.0898C 177.758 17.9805 177.352 17.9258 176.891 17.9258C 176.164 17.9258 175.523 18.1094 174.969 18.4766C 174.422 18.8359 173.984 19.3125 173.656 19.9062L 173.656 29L 171.488 29L 171.488 16.3203L 173.434 16.3203ZM 191.035 13.25L 191.035 16.3203L 195.863 16.3203L 195.863 17.9961L 191.035 17.9961L 191.035 24.8867C 191.035 25.3789 191.098 25.7852 191.223 26.1055C 191.348 26.4258 191.52 26.6836 191.738 26.8789C 191.957 27.0664 192.207 27.1992 192.488 27.2773C 192.777 27.3555 193.082 27.3945 193.402 27.3945C 193.637 27.3945 193.879 27.3828 194.129 27.3594C 194.379 27.3281 194.621 27.293 194.855 27.2539C 195.098 27.2148 195.32 27.1758 195.523 27.1367C 195.734 27.0898 195.906 27.0508 196.039 27.0195L 196.344 28.5547C 196.164 28.6641 195.945 28.7617 195.688 28.8477C 195.43 28.9258 195.148 28.9922 194.844 29.0469C 194.539 29.1094 194.215 29.1562 193.871 29.1875C 193.535 29.2188 193.199 29.2344 192.863 29.2344C 192.301 29.2344 191.773 29.1562 191.281 29C 190.797 28.8359 190.375 28.582 190.016 28.2383C 189.656 27.8867 189.371 27.4375 189.16 26.8906C 188.957 26.3359 188.855 25.668 188.855 24.8867L 188.855 17.9961L 185.527 17.9961L 185.527 16.3203L 188.855 16.3203L 188.855 13.25L 191.035 13.25Z"/>
</defs>
</svg>
