<svg width="800" height="306" viewBox="0 0 800 306" version="1.1" xmlns="http://www.w3.org/2000/svg" xmlns:xlink="http://www.w3.org/1999/xlink">
<title>New Campus Form</title>
<desc>Created using Figma</desc>
<g id="Canvas" transform="translate(612 837)">
<g id="New Campus Form">
<g id="Header">
<g id="Rectangle">
<use xlink:href="#path0_fill" transform="translate(-612 -837)" fill="#C4C4C4"/>
</g>
<g id="Home">
<use xlink:href="#path1_fill" transform="translate(-602 -822)"/>
<use xlink:href="#path2_fill" transform="translate(-602 -822)"/>
</g>
<g id="Students">
<use xlink:href="#path3_fill" transform="translate(46 -822)"/>
<use xlink:href="#path4_fill" transform="translate(46 -822)"/>
</g>
<g id="Campuses">
<use xlink:href="#path5_fill" transform="translate(-85 -822)"/>
<use xlink:href="#path6_fill" transform="translate(-85 -822)"/>
</g>
</g>
<g id="Campus Name">
<use xlink:href="#path7_fill" transform="translate(-489 -769)"/>
</g>
<g id="Text Input">
<g id="Rectangle">
<use xlink:href="#path8_fill" transform="translate(-457 -671)" fill="#FAFAFA"/>
<mask id="mask0_outline_ins">
<use xlink:href="#path8_fill" fill="white" transform="translate(-457 -671)"/>
</mask>
<g mask="url(#mask0_outline_ins)">
<use xlink:href="#path9_stroke_2x" transform="translate(-457 -671)"/>
</g>
</g>
</g>
<g id="Add Campus">
<g id="Rectangle">
<use xlink:href="#path10_fill" transform="translate(-312 -578)" fill="#30CDFF"/>
</g>
<g id="Add Campus">
<use xlink:href="#path11_fill" transform="translate(-331 -575)" fill="#F7FCFF"/>
</g>
</g>
</g>
</g>
<defs>
<path id="path0_fill" d="M 0 0L 800 0L 800 52L 0 52L 0 0Z"/>
<path id="path1_fill" d="M 12.7383 22L 10.6875 22L 10.6875 14.1133L 3.69141 14.1133L 3.69141 22L 1.65234 22L 1.65234 4.9375L 3.69141 4.9375L 3.69141 12.2734L 10.6875 12.2734L 10.6875 4.9375L 12.7383 4.9375L 12.7383 22ZM 15.8438 15.543C 15.8438 14.6289 15.9766 13.7812 16.2422 13C 16.5078 12.2109 16.8867 11.5273 17.3789 10.9492C 17.8789 10.3711 18.4844 9.91797 19.1953 9.58984C 19.9062 9.25391 20.707 9.08594 21.5977 9.08594C 22.4961 9.08594 23.3008 9.25391 24.0117 9.58984C 24.7305 9.91797 25.3359 10.3711 25.8281 10.9492C 26.3281 11.5273 26.7109 12.2109 26.9766 13C 27.2422 13.7812 27.375 14.6289 27.375 15.543L 27.375 15.8008C 27.375 16.7148 27.2422 17.5625 26.9766 18.3438C 26.7109 19.125 26.3281 19.8047 25.8281 20.3828C 25.3359 20.9609 24.7344 21.4141 24.0234 21.7422C 23.3125 22.0703 22.5117 22.2344 21.6211 22.2344C 20.7227 22.2344 19.9141 22.0703 19.1953 21.7422C 18.4844 21.4141 17.8789 20.9609 17.3789 20.3828C 16.8867 19.8047 16.5078 19.125 16.2422 18.3438C 15.9766 17.5625 15.8438 16.7148 15.8438 15.8008L 15.8438 15.543ZM 18.0117 15.8008C 18.0117 16.4258 18.0859 17.0234 18.2344 17.5938C 18.3828 18.1562 18.6055 18.6523 18.9023 19.082C 19.207 19.5117 19.5859 19.8516 20.0391 20.1016C 20.4922 20.3516 21.0195 20.4766 21.6211 20.4766C 22.2148 20.4766 22.7344 20.3516 23.1797 20.1016C 23.6328 19.8516 24.0078 19.5117 24.3047 19.082C 24.6094 18.6523 24.8359 18.1562 24.9844 17.5938C 25.1328 17.0234 25.207 16.4258 25.207 15.8008L 25.207 15.543C 25.207 14.9258 25.1289 14.3359 24.9727 13.7734C 24.8242 13.2031 24.5977 12.7031 24.293 12.2734C 23.9961 11.8438 23.6211 11.5039 23.168 11.2539C 22.7227 10.9961 22.1992 10.8672 21.5977 10.8672C 20.9961 10.8672 20.4727 10.9961 20.0273 11.2539C 19.582 11.5039 19.207 11.8438 18.9023 12.2734C 18.6055 12.7031 18.3828 13.2031 18.2344 13.7734C 18.0859 14.3359 18.0117 14.9258 18.0117 15.543L 18.0117 15.8008ZM 31.8633 9.32031L 31.9219 10.5156C 32.1797 10.0703 32.5156 9.72266 32.9297 9.47266C 33.3516 9.22266 33.8594 9.09375 34.4531 9.08594C 35.6172 9.08594 36.3945 9.53906 36.7852 10.4453C 37.0352 10.0391 37.3633 9.71484 37.7695 9.47266C 38.1836 9.22266 38.6836 9.09375 39.2695 9.08594C 40.1992 9.08594 40.9141 9.37109 41.4141 9.94141C 41.9141 10.5117 42.1641 11.375 42.1641 12.5312L 42.1641 22L 40.1016 22L 40.1016 12.5078C 40.1016 11.4453 39.6133 10.918 38.6367 10.9258C 38.3789 10.9258 38.1562 10.9609 37.9688 11.0312C 37.7812 11.1016 37.625 11.1992 37.5 11.3242C 37.375 11.4414 37.2773 11.582 37.207 11.7461C 37.1367 11.9023 37.0898 12.0664 37.0664 12.2383L 37.0664 22L 35.0039 22L 35.0039 12.4961C 35.0039 11.9883 34.8906 11.5977 34.6641 11.3242C 34.4375 11.0508 34.0781 10.918 33.5859 10.9258C 33.1328 10.9258 32.7812 11.0156 32.5312 11.1953C 32.2812 11.375 32.0977 11.6133 31.9805 11.9102L 31.9805 22L 29.918 22L 29.918 9.32031L 31.8633 9.32031ZM 50.8828 22.2344C 49.9922 22.2344 49.1719 22.082 48.4219 21.7773C 47.6797 21.4727 47.043 21.0469 46.5117 20.5C 45.9805 19.9531 45.5664 19.3047 45.2695 18.5547C 44.9727 17.8047 44.8242 16.9883 44.8242 16.1055L 44.8242 15.6133C 44.8242 14.5898 44.9883 13.6758 45.3164 12.8711C 45.6445 12.0586 46.0781 11.375 46.6172 10.8203C 47.1641 10.2578 47.7812 9.82812 48.4688 9.53125C 49.1641 9.23438 49.875 9.08594 50.6016 9.08594C 51.5156 9.08594 52.3125 9.24609 52.9922 9.56641C 53.6797 9.87891 54.25 10.3164 54.7031 10.8789C 55.1562 11.4336 55.4922 12.0898 55.7109 12.8477C 55.9375 13.6055 56.0508 14.4258 56.0508 15.3086L 56.0508 16.2812L 46.9922 16.2812C 47.0156 16.8594 47.125 17.4023 47.3203 17.9102C 47.5234 18.418 47.7969 18.8633 48.1406 19.2461C 48.4922 19.6211 48.9102 19.918 49.3945 20.1367C 49.8789 20.3555 50.4141 20.4648 51 20.4648C 51.7734 20.4648 52.4609 20.3086 53.0625 19.9961C 53.6641 19.6836 54.1641 19.2695 54.5625 18.7539L 55.8867 19.7852C 55.6758 20.1055 55.4102 20.4141 55.0898 20.7109C 54.7773 21 54.4141 21.2578 54 21.4844C 53.5859 21.7109 53.1172 21.8906 52.5938 22.0234C 52.0703 22.1641 51.5 22.2344 50.8828 22.2344ZM 50.6016 10.8672C 50.1641 10.8672 49.75 10.9492 49.3594 11.1133C 48.9688 11.2695 48.6172 11.5039 48.3047 11.8164C 47.9922 12.1211 47.7266 12.5 47.5078 12.9531C 47.2969 13.3984 47.1484 13.9141 47.0625 14.5L 53.8828 14.5L 53.8828 14.3359C 53.8594 13.9141 53.7773 13.4961 53.6367 13.082C 53.5039 12.668 53.3047 12.2969 53.0391 11.9688C 52.7734 11.6406 52.4375 11.375 52.0312 11.1719C 51.6328 10.9688 51.1562 10.8672 50.6016 10.8672Z"/>
<path id="path2_fill" d="M 0 24.6094L 57.6445 24.6094L 57.6445 25.7812L 0 25.7812L 0 24.6094Z"/>
<path id="path3_fill" d="M 10.9688 17.6875C 10.9688 17.1641 10.8477 16.7227 10.6055 16.3633C 10.3711 16.0039 10.0664 15.7031 9.69141 15.4609C 9.31641 15.2109 8.90234 15.0039 8.44922 14.8398C 8.00391 14.6758 7.57422 14.5273 7.16016 14.3945C 6.55859 14.1992 5.94531 13.9648 5.32031 13.6914C 4.70312 13.418 4.13672 13.082 3.62109 12.6836C 3.11328 12.2852 2.69531 11.8164 2.36719 11.2773C 2.04688 10.7305 1.88672 10.0898 1.88672 9.35547C 1.88672 8.62109 2.04688 7.96484 2.36719 7.38672C 2.69531 6.80859 3.12109 6.32031 3.64453 5.92188C 4.16797 5.52344 4.76172 5.22266 5.42578 5.01953C 6.08984 4.80859 6.75781 4.70312 7.42969 4.70312C 8.17188 4.70312 8.88672 4.82813 9.57422 5.07812C 10.2617 5.32031 10.8711 5.66406 11.4023 6.10938C 11.9336 6.55469 12.3594 7.09375 12.6797 7.72656C 13 8.35938 13.168 9.06641 13.1836 9.84766L 10.957 9.84766C 10.8945 9.35547 10.7734 8.91016 10.5938 8.51172C 10.4141 8.10547 10.1758 7.75781 9.87891 7.46875C 9.58203 7.17969 9.22656 6.95703 8.8125 6.80078C 8.40625 6.63672 7.94531 6.55469 7.42969 6.55469C 7.01562 6.55469 6.60938 6.61328 6.21094 6.73047C 5.82031 6.84766 5.46875 7.02344 5.15625 7.25781C 4.85156 7.49219 4.60547 7.78125 4.41797 8.125C 4.23828 8.46875 4.14844 8.86719 4.14844 9.32031C 4.15625 9.8125 4.28125 10.2305 4.52344 10.5742C 4.76562 10.9102 5.07031 11.1953 5.4375 11.4297C 5.8125 11.6641 6.21484 11.8594 6.64453 12.0156C 7.08203 12.1719 7.49219 12.3086 7.875 12.4258C 8.29688 12.5586 8.72266 12.7109 9.15234 12.8828C 9.58203 13.0469 9.99609 13.2383 10.3945 13.457C 10.793 13.6758 11.1641 13.9219 11.5078 14.1953C 11.8516 14.4688 12.1523 14.7812 12.4102 15.1328C 12.668 15.4766 12.8672 15.8594 13.0078 16.2812C 13.1562 16.6953 13.2305 17.1562 13.2305 17.6641C 13.2305 18.4297 13.0586 19.0977 12.7148 19.668C 12.3789 20.2383 11.9414 20.7148 11.4023 21.0977C 10.8633 21.4727 10.2539 21.7578 9.57422 21.9531C 8.89453 22.1406 8.21484 22.2344 7.53516 22.2344C 6.77734 22.2344 6.03516 22.1172 5.30859 21.8828C 4.58203 21.6484 3.92969 21.3125 3.35156 20.875C 2.78125 20.4297 2.31641 19.8906 1.95703 19.2578C 1.59766 18.6172 1.40625 17.8906 1.38281 17.0781L 3.59766 17.0781C 3.66797 17.6094 3.8125 18.082 4.03125 18.4961C 4.25 18.9023 4.53125 19.25 4.875 19.5391C 5.21875 19.8203 5.61328 20.0352 6.05859 20.1836C 6.51172 20.3242 7.00391 20.3945 7.53516 20.3945C 7.95703 20.3945 8.37109 20.3438 8.77734 20.2422C 9.19141 20.1328 9.55859 19.9688 9.87891 19.75C 10.1992 19.5234 10.4609 19.2422 10.6641 18.9062C 10.8672 18.5625 10.9688 18.1562 10.9688 17.6875ZM 21.5859 6.25L 21.5859 9.32031L 26.4141 9.32031L 26.4141 10.9961L 21.5859 10.9961L 21.5859 17.8867C 21.5859 18.3789 21.6484 18.7852 21.7734 19.1055C 21.8984 19.4258 22.0703 19.6836 22.2891 19.8789C 22.5078 20.0664 22.7578 20.1992 23.0391 20.2773C 23.3281 20.3555 23.6328 20.3945 23.9531 20.3945C 24.1875 20.3945 24.4297 20.3828 24.6797 20.3594C 24.9297 20.3281 25.1719 20.293 25.4062 20.2539C 25.6484 20.2148 25.8711 20.1758 26.0742 20.1367C 26.2852 20.0898 26.457 20.0508 26.5898 20.0195L 26.8945 21.5547C 26.7148 21.6641 26.4961 21.7617 26.2383 21.8477C 25.9805 21.9258 25.6992 21.9922 25.3945 22.0469C 25.0898 22.1094 24.7656 22.1562 24.4219 22.1875C 24.0859 22.2188 23.75 22.2344 23.4141 22.2344C 22.8516 22.2344 22.3242 22.1562 21.832 22C 21.3477 21.8359 20.9258 21.582 20.5664 21.2383C 20.207 20.8867 19.9219 20.4375 19.7109 19.8906C 19.5078 19.3359 19.4062 18.668 19.4062 17.8867L 19.4062 10.9961L 16.0781 10.9961L 16.0781 9.32031L 19.4062 9.32031L 19.4062 6.25L 21.5859 6.25ZM 39.0938 20.2539C 38.6719 20.8789 38.1445 21.3672 37.5117 21.7188C 36.8789 22.0625 36.1484 22.2344 35.3203 22.2344C 34.6562 22.2344 34.0547 22.1328 33.5156 21.9297C 32.9766 21.7188 32.5156 21.3945 32.1328 20.957C 31.75 20.5195 31.4531 19.9648 31.2422 19.293C 31.0391 18.6133 30.9375 17.8008 30.9375 16.8555L 30.9375 9.32031L 33.1055 9.32031L 33.1055 16.8789C 33.1055 17.5664 33.1602 18.1367 33.2695 18.5898C 33.3789 19.043 33.543 19.4062 33.7617 19.6797C 33.9805 19.9453 34.2461 20.1328 34.5586 20.2422C 34.8789 20.3516 35.2461 20.4062 35.6602 20.4062C 36.543 20.4062 37.2539 20.2266 37.793 19.8672C 38.3398 19.5078 38.7461 19.0234 39.0117 18.4141L 39.0117 9.32031L 41.1914 9.32031L 41.1914 22L 39.2227 22L 39.0938 20.2539ZM 44.8711 15.5547C 44.8711 14.6094 44.9883 13.7422 45.2227 12.9531C 45.4648 12.1562 45.8047 11.4727 46.2422 10.9023C 46.6875 10.332 47.2227 9.88672 47.8477 9.56641C 48.4727 9.24609 49.1719 9.08594 49.9453 9.08594C 50.7031 9.08594 51.3633 9.21484 51.9258 9.47266C 52.4961 9.72266 52.9883 10.0898 53.4023 10.5742L 53.4023 4L 55.5703 4L 55.5703 22L 53.5781 22L 53.4844 20.6641C 53.0625 21.1797 52.5586 21.5703 51.9727 21.8359C 51.3867 22.1016 50.7031 22.2344 49.9219 22.2344C 49.1562 22.2344 48.4609 22.0703 47.8359 21.7422C 47.2188 21.4141 46.6914 20.9609 46.2539 20.3828C 45.8164 19.8047 45.4766 19.125 45.2344 18.3438C 44.9922 17.5547 44.8711 16.707 44.8711 15.8008L 44.8711 15.5547ZM 47.0391 15.8008C 47.0391 16.418 47.1055 17.0039 47.2383 17.5586C 47.3711 18.1133 47.5742 18.6016 47.8477 19.0234C 48.1289 19.4453 48.4844 19.7812 48.9141 20.0312C 49.3438 20.2734 49.8594 20.3945 50.4609 20.3945C 50.8281 20.3945 51.1602 20.3516 51.457 20.2656C 51.7539 20.1797 52.0234 20.0586 52.2656 19.9023C 52.5078 19.7383 52.7227 19.5469 52.9102 19.3281C 53.0977 19.1016 53.2617 18.8516 53.4023 18.5781L 53.4023 12.6953C 53.1211 12.1797 52.7422 11.7578 52.2656 11.4297C 51.7891 11.0938 51.1953 10.9258 50.4844 10.9258C 49.875 10.9258 49.3516 11.0508 48.9141 11.3008C 48.4844 11.5508 48.1289 11.8906 47.8477 12.3203C 47.5742 12.7422 47.3711 13.2344 47.2383 13.7969C 47.1055 14.3516 47.0391 14.9375 47.0391 15.5547L 47.0391 15.8008ZM 65.2969 22.2344C 64.4062 22.2344 63.5859 22.082 62.8359 21.7773C 62.0938 21.4727 61.457 21.0469 60.9258 20.5C 60.3945 19.9531 59.9805 19.3047 59.6836 18.5547C 59.3867 17.8047 59.2383 16.9883 59.2383 16.1055L 59.2383 15.6133C 59.2383 14.5898 59.4023 13.6758 59.7305 12.8711C 60.0586 12.0586 60.4922 11.375 61.0312 10.8203C 61.5781 10.2578 62.1953 9.82812 62.8828 9.53125C 63.5781 9.23438 64.2891 9.08594 65.0156 9.08594C 65.9297 9.08594 66.7266 9.24609 67.4062 9.56641C 68.0938 9.87891 68.6641 10.3164 69.1172 10.8789C 69.5703 11.4336 69.9062 12.0898 70.125 12.8477C 70.3516 13.6055 70.4648 14.4258 70.4648 15.3086L 70.4648 16.2812L 61.4062 16.2812C 61.4297 16.8594 61.5391 17.4023 61.7344 17.9102C 61.9375 18.418 62.2109 18.8633 62.5547 19.2461C 62.9062 19.6211 63.3242 19.918 63.8086 20.1367C 64.293 20.3555 64.8281 20.4648 65.4141 20.4648C 66.1875 20.4648 66.875 20.3086 67.4766 19.9961C 68.0781 19.6836 68.5781 19.2695 68.9766 18.7539L 70.3008 19.7852C 70.0898 20.1055 69.8242 20.4141 69.5039 20.7109C 69.1914 21 68.8281 21.2578 68.4141 21.4844C 68 21.7109 67.5312 21.8906 67.0078 22.0234C 66.4844 22.1641 65.9141 22.2344 65.2969 22.2344ZM 65.0156 10.8672C 64.5781 10.8672 64.1641 10.9492 63.7734 11.1133C 63.3828 11.2695 63.0312 11.5039 62.7188 11.8164C 62.4062 12.1211 62.1406 12.5 61.9219 12.9531C 61.7109 13.3984 61.5625 13.9141 61.4766 14.5L 68.2969 14.5L 68.2969 14.3359C 68.2734 13.9141 68.1914 13.4961 68.0508 13.082C 67.918 12.668 67.7188 12.2969 67.4531 11.9688C 67.1875 11.6406 66.8516 11.375 66.4453 11.1719C 66.0469 10.9688 65.5703 10.8672 65.0156 10.8672ZM 76.0547 9.32031L 76.207 11.1953C 76.668 10.5391 77.2344 10.0273 77.9062 9.66016C 78.5781 9.28516 79.3281 9.09375 80.1562 9.08594C 80.8203 9.08594 81.4219 9.17969 81.9609 9.36719C 82.5078 9.55469 82.9727 9.84766 83.3555 10.2461C 83.7383 10.6445 84.0312 11.1523 84.2344 11.7695C 84.4453 12.3789 84.5508 13.1055 84.5508 13.9492L 84.5508 22L 82.3828 22L 82.3828 13.9961C 82.3828 13.4336 82.3203 12.957 82.1953 12.5664C 82.0703 12.1758 81.8828 11.8594 81.6328 11.6172C 81.3906 11.375 81.0898 11.1992 80.7305 11.0898C 80.3789 10.9805 79.9727 10.9258 79.5117 10.9258C 78.7852 10.9258 78.1445 11.1094 77.5898 11.4766C 77.043 11.8359 76.6055 12.3125 76.2773 12.9062L 76.2773 22L 74.1094 22L 74.1094 9.32031L 76.0547 9.32031ZM 93.6562 6.25L 93.6562 9.32031L 98.4844 9.32031L 98.4844 10.9961L 93.6562 10.9961L 93.6562 17.8867C 93.6562 18.3789 93.7188 18.7852 93.8438 19.1055C 93.9688 19.4258 94.1406 19.6836 94.3594 19.8789C 94.5781 20.0664 94.8281 20.1992 95.1094 20.2773C 95.3984 20.3555 95.7031 20.3945 96.0234 20.3945C 96.2578 20.3945 96.5 20.3828 96.75 20.3594C 97 20.3281 97.2422 20.293 97.4766 20.2539C 97.7188 20.2148 97.9414 20.1758 98.1445 20.1367C 98.3555 20.0898 98.5273 20.0508 98.6602 20.0195L 98.9648 21.5547C 98.7852 21.6641 98.5664 21.7617 98.3086 21.8477C 98.0508 21.9258 97.7695 21.9922 97.4648 22.0469C 97.1602 22.1094 96.8359 22.1562 96.4922 22.1875C 96.1562 22.2188 95.8203 22.2344 95.4844 22.2344C 94.9219 22.2344 94.3945 22.1562 93.9023 22C 93.418 21.8359 92.9961 21.582 92.6367 21.2383C 92.2773 20.8867 91.9922 20.4375 91.7812 19.8906C 91.5781 19.3359 91.4766 18.668 91.4766 17.8867L 91.4766 10.9961L 88.1484 10.9961L 88.1484 9.32031L 91.4766 9.32031L 91.4766 6.25L 93.6562 6.25ZM 111.363 18.6367C 111.363 18.3789 111.312 18.1484 111.211 17.9453C 111.109 17.7344 110.938 17.543 110.695 17.3711C 110.453 17.1992 110.133 17.043 109.734 16.9023C 109.336 16.7539 108.84 16.6211 108.246 16.5039C 107.52 16.3555 106.855 16.1758 106.254 15.9648C 105.66 15.7539 105.148 15.5039 104.719 15.2148C 104.297 14.918 103.969 14.5742 103.734 14.1836C 103.5 13.7852 103.383 13.3242 103.383 12.8008C 103.383 12.2852 103.504 11.8047 103.746 11.3594C 103.988 10.9062 104.328 10.5117 104.766 10.1758C 105.203 9.83984 105.723 9.57422 106.324 9.37891C 106.934 9.18359 107.602 9.08594 108.328 9.08594C 109.109 9.08594 109.812 9.1875 110.438 9.39062C 111.062 9.59375 111.594 9.875 112.031 10.2344C 112.469 10.5938 112.805 11.0156 113.039 11.5C 113.281 11.9766 113.402 12.4922 113.402 13.0469L 111.234 13.0469C 111.234 12.7734 111.164 12.5078 111.023 12.25C 110.883 11.9844 110.688 11.75 110.438 11.5469C 110.188 11.3438 109.883 11.1797 109.523 11.0547C 109.172 10.9297 108.773 10.8672 108.328 10.8672C 107.867 10.8672 107.461 10.918 107.109 11.0195C 106.766 11.1211 106.477 11.2578 106.242 11.4297C 106.016 11.6016 105.844 11.8008 105.727 12.0273C 105.609 12.2539 105.551 12.4883 105.551 12.7305C 105.551 12.9805 105.598 13.2031 105.691 13.3984C 105.785 13.5938 105.945 13.7695 106.172 13.9258C 106.406 14.082 106.715 14.2227 107.098 14.3477C 107.488 14.4727 107.98 14.5938 108.574 14.7109C 109.355 14.875 110.055 15.0664 110.672 15.2852C 111.289 15.4961 111.809 15.7539 112.23 16.0586C 112.652 16.3555 112.973 16.7031 113.191 17.1016C 113.418 17.5 113.531 17.9609 113.531 18.4844C 113.531 19.0469 113.402 19.5586 113.145 20.0195C 112.895 20.4805 112.543 20.875 112.09 21.2031C 111.637 21.5312 111.094 21.7852 110.461 21.9648C 109.828 22.1445 109.137 22.2344 108.387 22.2344C 107.527 22.2344 106.762 22.1211 106.09 21.8945C 105.418 21.6602 104.848 21.3555 104.379 20.9805C 103.918 20.5977 103.562 20.1562 103.312 19.6562C 103.07 19.1562 102.949 18.6367 102.949 18.0977L 105.117 18.0977C 105.148 18.543 105.266 18.918 105.469 19.2227C 105.68 19.5273 105.938 19.7734 106.242 19.9609C 106.555 20.1484 106.898 20.2812 107.273 20.3594C 107.648 20.4375 108.02 20.4766 108.387 20.4766C 109.301 20.4766 110.023 20.3086 110.555 19.9727C 111.086 19.6367 111.355 19.1914 111.363 18.6367Z"/>
<path id="path4_fill" d="M 0 24.6094L 115.301 24.6094L 115.301 25.7812L 0 25.7812L 0 24.6094Z"/>
<path id="path5_fill" d="M 13.0898 16.8672C 12.9883 17.6562 12.7852 18.3828 12.4805 19.0469C 12.1758 19.7031 11.7773 20.2695 11.2852 20.7461C 10.8008 21.2148 10.2227 21.582 9.55078 21.8477C 8.88672 22.1055 8.14453 22.2344 7.32422 22.2344C 6.62109 22.2344 5.98047 22.1367 5.40234 21.9414C 4.83203 21.7383 4.32031 21.4609 3.86719 21.1094C 3.42188 20.7578 3.03516 20.3438 2.70703 19.8672C 2.38672 19.3906 2.11719 18.8711 1.89844 18.3086C 1.6875 17.7461 1.52734 17.1562 1.41797 16.5391C 1.31641 15.9219 1.26172 15.2969 1.25391 14.6641L 1.25391 12.2852C 1.26172 11.6523 1.31641 11.0273 1.41797 10.4102C 1.52734 9.79297 1.6875 9.20312 1.89844 8.64062C 2.11719 8.07812 2.38672 7.55859 2.70703 7.08203C 3.03516 6.59766 3.42188 6.17969 3.86719 5.82812C 4.32031 5.47656 4.83203 5.20313 5.40234 5.00781C 5.97266 4.80469 6.61328 4.70312 7.32422 4.70312C 8.17578 4.70312 8.9375 4.83594 9.60938 5.10156C 10.2812 5.35938 10.8594 5.73047 11.3438 6.21484C 11.8281 6.69141 12.2148 7.26563 12.5039 7.9375C 12.8008 8.60938 12.9961 9.35156 13.0898 10.1641L 10.9219 10.1641C 10.8516 9.64844 10.7305 9.16797 10.5586 8.72266C 10.3867 8.27734 10.1562 7.88672 9.86719 7.55078C 9.57812 7.21484 9.22266 6.95312 8.80078 6.76562C 8.38672 6.57031 7.89453 6.47266 7.32422 6.47266C 6.80859 6.47266 6.35156 6.55859 5.95312 6.73047C 5.5625 6.89453 5.22266 7.12109 4.93359 7.41016C 4.65234 7.69922 4.41406 8.03516 4.21875 8.41797C 4.03125 8.80078 3.87891 9.20703 3.76172 9.63672C 3.64453 10.0664 3.55859 10.5078 3.50391 10.9609C 3.45703 11.4062 3.43359 11.8398 3.43359 12.2617L 3.43359 14.6641C 3.43359 15.0859 3.45703 15.5234 3.50391 15.9766C 3.55859 16.4219 3.64453 16.8633 3.76172 17.3008C 3.87891 17.7305 4.03125 18.1367 4.21875 18.5195C 4.40625 18.9023 4.64453 19.2422 4.93359 19.5391C 5.22266 19.8281 5.5625 20.0586 5.95312 20.2305C 6.34375 20.3945 6.80078 20.4766 7.32422 20.4766C 7.89453 20.4766 8.38672 20.3867 8.80078 20.207C 9.22266 20.0273 9.57812 19.7773 9.86719 19.457C 10.1562 19.1289 10.3867 18.7461 10.5586 18.3086C 10.7305 17.8633 10.8516 17.3828 10.9219 16.8672L 13.0898 16.8672ZM 24.7852 22C 24.6992 21.8359 24.6289 21.6328 24.5742 21.3906C 24.5273 21.1406 24.4922 20.8828 24.4688 20.6172C 24.25 20.8359 24.0039 21.043 23.7305 21.2383C 23.4648 21.4336 23.168 21.6055 22.8398 21.7539C 22.5195 21.9023 22.1758 22.0195 21.8086 22.1055C 21.4414 22.1914 21.0508 22.2344 20.6367 22.2344C 19.9648 22.2344 19.3555 22.1367 18.8086 21.9414C 18.2695 21.7461 17.8086 21.4844 17.4258 21.1562C 17.0508 20.8203 16.7578 20.4258 16.5469 19.9727C 16.3438 19.5117 16.2422 19.0156 16.2422 18.4844C 16.2422 17.7891 16.3789 17.1797 16.6523 16.6562C 16.9336 16.1328 17.3281 15.6992 17.8359 15.3555C 18.3438 15.0039 18.9531 14.7422 19.6641 14.5703C 20.3828 14.3984 21.1836 14.3125 22.0664 14.3125L 24.4336 14.3125L 24.4336 13.3164C 24.4336 12.9336 24.3633 12.5898 24.2227 12.2852C 24.082 11.9805 23.8828 11.7227 23.625 11.5117C 23.3672 11.293 23.0508 11.125 22.6758 11.0078C 22.3086 10.8906 21.8945 10.832 21.4336 10.832C 21.0039 10.832 20.6172 10.8867 20.2734 10.9961C 19.9375 11.1055 19.6523 11.25 19.418 11.4297C 19.1836 11.6094 19 11.8242 18.8672 12.0742C 18.7422 12.3164 18.6797 12.5703 18.6797 12.8359L 16.5 12.8359C 16.5078 12.375 16.625 11.9219 16.8516 11.4766C 17.0859 11.0312 17.418 10.6328 17.8477 10.2812C 18.2852 9.92188 18.8125 9.63281 19.4297 9.41406C 20.0547 9.19531 20.7617 9.08594 21.5508 9.08594C 22.2695 9.08594 22.9375 9.17578 23.5547 9.35547C 24.1719 9.52734 24.7031 9.79297 25.1484 10.1523C 25.6016 10.5039 25.957 10.9453 26.2148 11.4766C 26.4727 12.0078 26.6016 12.6289 26.6016 13.3398L 26.6016 19.2344C 26.6016 19.6562 26.6406 20.1055 26.7188 20.582C 26.7969 21.0508 26.9062 21.4609 27.0469 21.8125L 27.0469 22L 24.7852 22ZM 20.9531 20.3477C 21.375 20.3477 21.7695 20.293 22.1367 20.1836C 22.5039 20.0742 22.8359 19.9297 23.1328 19.75C 23.4375 19.5703 23.6992 19.3672 23.918 19.1406C 24.1367 18.9062 24.3086 18.6641 24.4336 18.4141L 24.4336 15.8477L 22.418 15.8477C 21.1523 15.8477 20.168 16.0352 19.4648 16.4102C 18.7617 16.7852 18.4102 17.375 18.4102 18.1797C 18.4102 18.4922 18.4609 18.7812 18.5625 19.0469C 18.6719 19.3125 18.832 19.543 19.043 19.7383C 19.2539 19.9258 19.5195 20.0742 19.8398 20.1836C 20.1602 20.293 20.5312 20.3477 20.9531 20.3477ZM 31.8633 9.32031L 31.9219 10.5156C 32.1797 10.0703 32.5156 9.72266 32.9297 9.47266C 33.3516 9.22266 33.8594 9.09375 34.4531 9.08594C 35.6172 9.08594 36.3945 9.53906 36.7852 10.4453C 37.0352 10.0391 37.3633 9.71484 37.7695 9.47266C 38.1836 9.22266 38.6836 9.09375 39.2695 9.08594C 40.1992 9.08594 40.9141 9.37109 41.4141 9.94141C 41.9141 10.5117 42.1641 11.375 42.1641 12.5312L 42.1641 22L 40.1016 22L 40.1016 12.5078C 40.1016 11.4453 39.6133 10.918 38.6367 10.9258C 38.3789 10.9258 38.1562 10.9609 37.9688 11.0312C 37.7812 11.1016 37.625 11.1992 37.5 11.3242C 37.375 11.4414 37.2773 11.582 37.207 11.7461C 37.1367 11.9023 37.0898 12.0664 37.0664 12.2383L 37.0664 22L 35.0039 22L 35.0039 12.4961C 35.0039 11.9883 34.8906 11.5977 34.6641 11.3242C 34.4375 11.0508 34.0781 10.918 33.5859 10.9258C 33.1328 10.9258 32.7812 11.0156 32.5312 11.1953C 32.2812 11.375 32.0977 11.6133 31.9805 11.9102L 31.9805 22L 29.918 22L 29.918 9.32031L 31.8633 9.32031ZM 55.9805 15.8008C 55.9805 16.707 55.8711 17.5547 55.6523 18.3438C 55.4336 19.125 55.1133 19.8047 54.6914 20.3828C 54.2695 20.9609 53.7461 21.4141 53.1211 21.7422C 52.5039 22.0703 51.7969 22.2344 51 22.2344C 50.2266 22.2344 49.543 22.1094 48.9492 21.8594C 48.3633 21.6094 47.8594 21.25 47.4375 20.7812L 47.4375 26.875L 45.2695 26.875L 45.2695 9.32031L 47.25 9.32031L 47.3555 10.7031C 47.7773 10.1797 48.2852 9.78125 48.8789 9.50781C 49.4805 9.22656 50.1758 9.08594 50.9648 9.08594C 51.7773 9.08594 52.4961 9.24609 53.1211 9.56641C 53.7461 9.88672 54.2695 10.332 54.6914 10.9023C 55.1133 11.4727 55.4336 12.1562 55.6523 12.9531C 55.8711 13.7422 55.9805 14.6094 55.9805 15.5547L 55.9805 15.8008ZM 53.8125 15.5547C 53.8125 14.9375 53.7422 14.3516 53.6016 13.7969C 53.4688 13.2344 53.2578 12.7422 52.9688 12.3203C 52.6875 11.8906 52.3281 11.5508 51.8906 11.3008C 51.4531 11.0508 50.9297 10.9258 50.3203 10.9258C 49.625 10.9258 49.0391 11.0898 48.5625 11.418C 48.0938 11.7383 47.7188 12.1523 47.4375 12.6602L 47.4375 18.7656C 47.7188 19.2656 48.0938 19.6758 48.5625 19.9961C 49.0312 20.3086 49.625 20.4648 50.3438 20.4648C 50.9453 20.4648 51.4648 20.3398 51.9023 20.0898C 52.3398 19.832 52.6992 19.4883 52.9805 19.0586C 53.2617 18.6289 53.4688 18.1328 53.6016 17.5703C 53.7422 17.0078 53.8125 16.418 53.8125 15.8008L 53.8125 15.5547ZM 67.9219 20.2539C 67.5 20.8789 66.9727 21.3672 66.3398 21.7188C 65.707 22.0625 64.9766 22.2344 64.1484 22.2344C 63.4844 22.2344 62.8828 22.1328 62.3438 21.9297C 61.8047 21.7188 61.3438 21.3945 60.9609 20.957C 60.5781 20.5195 60.2812 19.9648 60.0703 19.293C 59.8672 18.6133 59.7656 17.8008 59.7656 16.8555L 59.7656 9.32031L 61.9336 9.32031L 61.9336 16.8789C 61.9336 17.5664 61.9883 18.1367 62.0977 18.5898C 62.207 19.043 62.3711 19.4062 62.5898 19.6797C 62.8086 19.9453 63.0742 20.1328 63.3867 20.2422C 63.707 20.3516 64.0742 20.4062 64.4883 20.4062C 65.3711 20.4062 66.082 20.2266 66.6211 19.8672C 67.168 19.5078 67.5742 19.0234 67.8398 18.4141L 67.8398 9.32031L 70.0195 9.32031L 70.0195 22L 68.0508 22L 67.9219 20.2539ZM 82.5352 18.6367C 82.5352 18.3789 82.4844 18.1484 82.3828 17.9453C 82.2812 17.7344 82.1094 17.543 81.8672 17.3711C 81.625 17.1992 81.3047 17.043 80.9062 16.9023C 80.5078 16.7539 80.0117 16.6211 79.418 16.5039C 78.6914 16.3555 78.0273 16.1758 77.4258 15.9648C 76.832 15.7539 76.3203 15.5039 75.8906 15.2148C 75.4688 14.918 75.1406 14.5742 74.9062 14.1836C 74.6719 13.7852 74.5547 13.3242 74.5547 12.8008C 74.5547 12.2852 74.6758 11.8047 74.918 11.3594C 75.1602 10.9062 75.5 10.5117 75.9375 10.1758C 76.375 9.83984 76.8945 9.57422 77.4961 9.37891C 78.1055 9.18359 78.7734 9.08594 79.5 9.08594C 80.2812 9.08594 80.9844 9.1875 81.6094 9.39062C 82.2344 9.59375 82.7656 9.875 83.2031 10.2344C 83.6406 10.5938 83.9766 11.0156 84.2109 11.5C 84.4531 11.9766 84.5742 12.4922 84.5742 13.0469L 82.4062 13.0469C 82.4062 12.7734 82.3359 12.5078 82.1953 12.25C 82.0547 11.9844 81.8594 11.75 81.6094 11.5469C 81.3594 11.3438 81.0547 11.1797 80.6953 11.0547C 80.3438 10.9297 79.9453 10.8672 79.5 10.8672C 79.0391 10.8672 78.6328 10.918 78.2812 11.0195C 77.9375 11.1211 77.6484 11.2578 77.4141 11.4297C 77.1875 11.6016 77.0156 11.8008 76.8984 12.0273C 76.7812 12.2539 76.7227 12.4883 76.7227 12.7305C 76.7227 12.9805 76.7695 13.2031 76.8633 13.3984C 76.957 13.5938 77.1172 13.7695 77.3438 13.9258C 77.5781 14.082 77.8867 14.2227 78.2695 14.3477C 78.6602 14.4727 79.1523 14.5938 79.7461 14.7109C 80.5273 14.875 81.2266 15.0664 81.8438 15.2852C 82.4609 15.4961 82.9805 15.7539 83.4023 16.0586C 83.8242 16.3555 84.1445 16.7031 84.3633 17.1016C 84.5898 17.5 84.7031 17.9609 84.7031 18.4844C 84.7031 19.0469 84.5742 19.5586 84.3164 20.0195C 84.0664 20.4805 83.7148 20.875 83.2617 21.2031C 82.8086 21.5312 82.2656 21.7852 81.6328 21.9648C 81 22.1445 80.3086 22.2344 79.5586 22.2344C 78.6992 22.2344 77.9336 22.1211 77.2617 21.8945C 76.5898 21.6602 76.0195 21.3555 75.5508 20.9805C 75.0898 20.5977 74.7344 20.1562 74.4844 19.6562C 74.2422 19.1562 74.1211 18.6367 74.1211 18.0977L 76.2891 18.0977C 76.3203 18.543 76.4375 18.918 76.6406 19.2227C 76.8516 19.5273 77.1094 19.7734 77.4141 19.9609C 77.7266 20.1484 78.0703 20.2812 78.4453 20.3594C 78.8203 20.4375 79.1914 20.4766 79.5586 20.4766C 80.4727 20.4766 81.1953 20.3086 81.7266 19.9727C 82.2578 19.6367 82.5273 19.1914 82.5352 18.6367ZM 94.125 22.2344C 93.2344 22.2344 92.4141 22.082 91.6641 21.7773C 90.9219 21.4727 90.2852 21.0469 89.7539 20.5C 89.2227 19.9531 88.8086 19.3047 88.5117 18.5547C 88.2148 17.8047 88.0664 16.9883 88.0664 16.1055L 88.0664 15.6133C 88.0664 14.5898 88.2305 13.6758 88.5586 12.8711C 88.8867 12.0586 89.3203 11.375 89.8594 10.8203C 90.4062 10.2578 91.0234 9.82812 91.7109 9.53125C 92.4062 9.23438 93.1172 9.08594 93.8438 9.08594C 94.7578 9.08594 95.5547 9.24609 96.2344 9.56641C 96.9219 9.87891 97.4922 10.3164 97.9453 10.8789C 98.3984 11.4336 98.7344 12.0898 98.9531 12.8477C 99.1797 13.6055 99.293 14.4258 99.293 15.3086L 99.293 16.2812L 90.2344 16.2812C 90.2578 16.8594 90.3672 17.4023 90.5625 17.9102C 90.7656 18.418 91.0391 18.8633 91.3828 19.2461C 91.7344 19.6211 92.1523 19.918 92.6367 20.1367C 93.1211 20.3555 93.6562 20.4648 94.2422 20.4648C 95.0156 20.4648 95.7031 20.3086 96.3047 19.9961C 96.9062 19.6836 97.4062 19.2695 97.8047 18.7539L 99.1289 19.7852C 98.918 20.1055 98.6523 20.4141 98.332 20.7109C 98.0195 21 97.6562 21.2578 97.2422 21.4844C 96.8281 21.7109 96.3594 21.8906 95.8359 22.0234C 95.3125 22.1641 94.7422 22.2344 94.125 22.2344ZM 93.8438 10.8672C 93.4062 10.8672 92.9922 10.9492 92.6016 11.1133C 92.2109 11.2695 91.8594 11.5039 91.5469 11.8164C 91.2344 12.1211 90.9688 12.5 90.75 12.9531C 90.5391 13.3984 90.3906 13.9141 90.3047 14.5L 97.125 14.5L 97.125 14.3359C 97.1016 13.9141 97.0195 13.4961 96.8789 13.082C 96.7461 12.668 96.5469 12.2969 96.2812 11.9688C 96.0156 11.6406 95.6797 11.375 95.2734 11.1719C 94.875 10.9688 94.3984 10.8672 93.8438 10.8672ZM 111.363 18.6367C 111.363 18.3789 111.312 18.1484 111.211 17.9453C 111.109 17.7344 110.938 17.543 110.695 17.3711C 110.453 17.1992 110.133 17.043 109.734 16.9023C 109.336 16.7539 108.84 16.6211 108.246 16.5039C 107.52 16.3555 106.855 16.1758 106.254 15.9648C 105.66 15.7539 105.148 15.5039 104.719 15.2148C 104.297 14.918 103.969 14.5742 103.734 14.1836C 103.5 13.7852 103.383 13.3242 103.383 12.8008C 103.383 12.2852 103.504 11.8047 103.746 11.3594C 103.988 10.9062 104.328 10.5117 104.766 10.1758C 105.203 9.83984 105.723 9.57422 106.324 9.37891C 106.934 9.18359 107.602 9.08594 108.328 9.08594C 109.109 9.08594 109.812 9.1875 110.438 9.39062C 111.062 9.59375 111.594 9.875 112.031 10.2344C 112.469 10.5938 112.805 11.0156 113.039 11.5C 113.281 11.9766 113.402 12.4922 113.402 13.0469L 111.234 13.0469C 111.234 12.7734 111.164 12.5078 111.023 12.25C 110.883 11.9844 110.688 11.75 110.438 11.5469C 110.188 11.3438 109.883 11.1797 109.523 11.0547C 109.172 10.9297 108.773 10.8672 108.328 10.8672C 107.867 10.8672 107.461 10.918 107.109 11.0195C 106.766 11.1211 106.477 11.2578 106.242 11.4297C 106.016 11.6016 105.844 11.8008 105.727 12.0273C 105.609 12.2539 105.551 12.4883 105.551 12.7305C 105.551 12.9805 105.598 13.2031 105.691 13.3984C 105.785 13.5938 105.945 13.7695 106.172 13.9258C 106.406 14.082 106.715 14.2227 107.098 14.3477C 107.488 14.4727 107.98 14.5938 108.574 14.7109C 109.355 14.875 110.055 15.0664 110.672 15.2852C 111.289 15.4961 111.809 15.7539 112.23 16.0586C 112.652 16.3555 112.973 16.7031 113.191 17.1016C 113.418 17.5 113.531 17.9609 113.531 18.4844C 113.531 19.0469 113.402 19.5586 113.145 20.0195C 112.895 20.4805 112.543 20.875 112.09 21.2031C 111.637 21.5312 111.094 21.7852 110.461 21.9648C 109.828 22.1445 109.137 22.2344 108.387 22.2344C 107.527 22.2344 106.762 22.1211 106.09 21.8945C 105.418 21.6602 104.848 21.3555 104.379 20.9805C 103.918 20.5977 103.562 20.1562 103.312 19.6562C 103.07 19.1562 102.949 18.6367 102.949 18.0977L 105.117 18.0977C 105.148 18.543 105.266 18.918 105.469 19.2227C 105.68 19.5273 105.938 19.7734 106.242 19.9609C 106.555 20.1484 106.898 20.2812 107.273 20.3594C 107.648 20.4375 108.02 20.4766 108.387 20.4766C 109.301 20.4766 110.023 20.3086 110.555 19.9727C 111.086 19.6367 111.355 19.1914 111.363 18.6367Z"/>
<path id="path6_fill" d="M 0 24.6094L 115.301 24.6094L 115.301 25.7812L 0 25.7812L 0 24.6094Z"/>
<path id="path7_fill" d="M 161.625 54.7344C 161.422 56.3125 161.016 57.7656 160.406 59.0938C 159.797 60.4062 159 61.5391 158.016 62.4922C 157.047 63.4297 155.891 64.1641 154.547 64.6953C 153.219 65.2109 151.734 65.4688 150.094 65.4688C 148.688 65.4688 147.406 65.2734 146.25 64.8828C 145.109 64.4766 144.086 63.9219 143.18 63.2188C 142.289 62.5156 141.516 61.6875 140.859 60.7344C 140.219 59.7812 139.68 58.7422 139.242 57.6172C 138.82 56.4922 138.5 55.3125 138.281 54.0781C 138.078 52.8437 137.969 51.5938 137.953 50.3281L 137.953 45.5703C 137.969 44.3047 138.078 43.0547 138.281 41.8203C 138.5 40.5859 138.82 39.4062 139.242 38.2812C 139.68 37.1562 140.219 36.1172 140.859 35.1641C 141.516 34.1953 142.289 33.3594 143.18 32.6562C 144.086 31.9531 145.109 31.4062 146.25 31.0156C 147.391 30.6094 148.672 30.4062 150.094 30.4062C 151.797 30.4062 153.32 30.6719 154.664 31.2031C 156.008 31.7188 157.164 32.4609 158.133 33.4297C 159.102 34.3828 159.875 35.5312 160.453 36.875C 161.047 38.2188 161.438 39.7031 161.625 41.3281L 157.289 41.3281C 157.148 40.2969 156.906 39.3359 156.562 38.4453C 156.219 37.5547 155.758 36.7734 155.18 36.1016C 154.602 35.4297 153.891 34.9062 153.047 34.5312C 152.219 34.1406 151.234 33.9453 150.094 33.9453C 149.062 33.9453 148.148 34.1172 147.352 34.4609C 146.57 34.7891 145.891 35.2422 145.312 35.8203C 144.75 36.3984 144.273 37.0703 143.883 37.8359C 143.508 38.6016 143.203 39.4141 142.969 40.2734C 142.734 41.1328 142.562 42.0156 142.453 42.9219C 142.359 43.8125 142.312 44.6797 142.312 45.5234L 142.312 50.3281C 142.312 51.1719 142.359 52.0469 142.453 52.9531C 142.562 53.8438 142.734 54.7266 142.969 55.6016C 143.203 56.4609 143.508 57.2734 143.883 58.0391C 144.258 58.8047 144.734 59.4844 145.312 60.0781C 145.891 60.6563 146.57 61.1172 147.352 61.4609C 148.133 61.7891 149.047 61.9531 150.094 61.9531C 151.234 61.9531 152.219 61.7734 153.047 61.4141C 153.891 61.0547 154.602 60.5547 155.18 59.9141C 155.758 59.2578 156.219 58.4922 156.562 57.6172C 156.906 56.7266 157.148 55.7656 157.289 54.7344L 161.625 54.7344ZM 185.016 65C 184.844 64.6719 184.703 64.2656 184.594 63.7812C 184.5 63.2812 184.43 62.7656 184.383 62.2344C 183.945 62.6719 183.453 63.0859 182.906 63.4766C 182.375 63.8672 181.781 64.2109 181.125 64.5078C 180.484 64.8047 179.797 65.0391 179.062 65.2109C 178.328 65.3828 177.547 65.4688 176.719 65.4688C 175.375 65.4688 174.156 65.2734 173.062 64.8828C 171.984 64.4922 171.062 63.9688 170.297 63.3125C 169.547 62.6406 168.961 61.8516 168.539 60.9453C 168.133 60.0234 167.93 59.0312 167.93 57.9688C 167.93 56.5781 168.203 55.3594 168.75 54.3125C 169.312 53.2656 170.102 52.3984 171.117 51.7109C 172.133 51.0078 173.352 50.4844 174.773 50.1406C 176.211 49.7969 177.813 49.625 179.578 49.625L 184.312 49.625L 184.312 47.6328C 184.312 46.8672 184.172 46.1797 183.891 45.5703C 183.609 44.9609 183.211 44.4453 182.695 44.0234C 182.18 43.5859 181.547 43.25 180.797 43.0156C 180.063 42.7812 179.234 42.6641 178.312 42.6641C 177.453 42.6641 176.68 42.7734 175.992 42.9922C 175.32 43.2109 174.75 43.5 174.281 43.8594C 173.812 44.2187 173.445 44.6484 173.18 45.1484C 172.93 45.6328 172.805 46.1406 172.805 46.6719L 168.445 46.6719C 168.461 45.75 168.695 44.8438 169.148 43.9531C 169.617 43.0625 170.281 42.2656 171.141 41.5625C 172.016 40.8438 173.07 40.2656 174.305 39.8281C 175.555 39.3906 176.969 39.1719 178.547 39.1719C 179.984 39.1719 181.32 39.3516 182.555 39.7109C 183.789 40.0547 184.852 40.5859 185.742 41.3047C 186.648 42.0078 187.359 42.8906 187.875 43.9531C 188.391 45.0156 188.648 46.2578 188.648 47.6797L 188.648 59.4688C 188.648 60.3125 188.727 61.2109 188.883 62.1641C 189.039 63.1016 189.258 63.9219 189.539 64.625L 189.539 65L 185.016 65ZM 177.352 61.6953C 178.195 61.6953 178.984 61.5859 179.719 61.3672C 180.453 61.1484 181.117 60.8594 181.711 60.5C 182.32 60.1406 182.844 59.7344 183.281 59.2812C 183.719 58.8125 184.062 58.3281 184.312 57.8281L 184.312 52.6953L 180.281 52.6953C 177.75 52.6953 175.781 53.0703 174.375 53.8203C 172.969 54.5703 172.266 55.75 172.266 57.3594C 172.266 57.9844 172.367 58.5625 172.57 59.0938C 172.789 59.625 173.109 60.0859 173.531 60.4766C 173.953 60.8516 174.484 61.1484 175.125 61.3672C 175.766 61.5859 176.508 61.6953 177.352 61.6953ZM 199.172 39.6406L 199.289 42.0312C 199.805 41.1406 200.477 40.4453 201.305 39.9453C 202.148 39.4453 203.164 39.1875 204.352 39.1719C 206.68 39.1719 208.234 40.0781 209.016 41.8906C 209.516 41.0781 210.172 40.4297 210.984 39.9453C 211.812 39.4453 212.812 39.1875 213.984 39.1719C 215.844 39.1719 217.273 39.7422 218.273 40.8828C 219.273 42.0234 219.773 43.75 219.773 46.0625L 219.773 65L 215.648 65L 215.648 46.0156C 215.648 43.8906 214.672 42.8359 212.719 42.8516C 212.203 42.8516 211.758 42.9219 211.383 43.0625C 211.008 43.2031 210.695 43.3984 210.445 43.6484C 210.195 43.8828 210 44.1641 209.859 44.4922C 209.719 44.8047 209.625 45.1328 209.578 45.4766L 209.578 65L 205.453 65L 205.453 45.9922C 205.453 44.9766 205.227 44.1953 204.773 43.6484C 204.32 43.1016 203.602 42.8359 202.617 42.8516C 201.711 42.8516 201.008 43.0313 200.508 43.3906C 200.008 43.75 199.641 44.2266 199.406 44.8203L 199.406 65L 195.281 65L 195.281 39.6406L 199.172 39.6406ZM 247.406 52.6016C 247.406 54.4141 247.187 56.1094 246.75 57.6875C 246.313 59.25 245.672 60.6094 244.828 61.7656C 243.984 62.9219 242.937 63.8281 241.688 64.4844C 240.453 65.1406 239.039 65.4688 237.445 65.4688C 235.898 65.4688 234.531 65.2187 233.344 64.7188C 232.172 64.2188 231.164 63.5 230.32 62.5625L 230.32 74.75L 225.984 74.75L 225.984 39.6406L 229.945 39.6406L 230.156 42.4062C 231 41.3594 232.016 40.5625 233.203 40.0156C 234.406 39.4531 235.797 39.1719 237.375 39.1719C 239 39.1719 240.438 39.4922 241.688 40.1328C 242.937 40.7734 243.984 41.6641 244.828 42.8047C 245.672 43.9453 246.313 45.3125 246.75 46.9062C 247.187 48.4844 247.406 50.2187 247.406 52.1094L 247.406 52.6016ZM 243.07 52.1094C 243.07 50.875 242.93 49.7031 242.648 48.5938C 242.383 47.4688 241.961 46.4844 241.383 45.6406C 240.82 44.7812 240.102 44.1016 239.227 43.6016C 238.352 43.1016 237.305 42.8516 236.086 42.8516C 234.695 42.8516 233.523 43.1797 232.57 43.8359C 231.633 44.4766 230.883 45.3047 230.32 46.3203L 230.32 58.5312C 230.883 59.5313 231.633 60.3516 232.57 60.9922C 233.508 61.6172 234.695 61.9297 236.133 61.9297C 237.336 61.9297 238.375 61.6797 239.25 61.1797C 240.125 60.6641 240.844 59.9766 241.406 59.1172C 241.969 58.2578 242.383 57.2656 242.648 56.1406C 242.93 55.0156 243.07 53.8359 243.07 52.6016L 243.07 52.1094ZM 271.289 61.5078C 270.445 62.7578 269.391 63.7344 268.125 64.4375C 266.859 65.125 265.398 65.4688 263.742 65.4688C 262.414 65.4688 261.211 65.2656 260.133 64.8594C 259.055 64.4375 258.133 63.7891 257.367 62.9141C 256.602 62.0391 256.008 60.9297 255.586 59.5859C 255.18 58.2266 254.977 56.6016 254.977 54.7109L 254.977 39.6406L 259.312 39.6406L 259.312 54.7578C 259.312 56.1328 259.422 57.2734 259.641 58.1797C 259.859 59.0859 260.188 59.8125 260.625 60.3594C 261.062 60.8906 261.594 61.2656 262.219 61.4844C 262.859 61.7031 263.594 61.8125 264.422 61.8125C 266.187 61.8125 267.609 61.4531 268.688 60.7344C 269.781 60.0156 270.594 59.0469 271.125 57.8281L 271.125 39.6406L 275.484 39.6406L 275.484 65L 271.547 65L 271.289 61.5078ZM 300.516 58.2734C 300.516 57.7578 300.414 57.2969 300.211 56.8906C 300.008 56.4688 299.664 56.0859 299.18 55.7422C 298.695 55.3984 298.055 55.0859 297.258 54.8047C 296.461 54.5078 295.469 54.2422 294.281 54.0078C 292.828 53.7109 291.5 53.3516 290.297 52.9297C 289.109 52.5078 288.086 52.0078 287.227 51.4297C 286.383 50.8359 285.727 50.1484 285.258 49.3672C 284.789 48.5703 284.555 47.6484 284.555 46.6016C 284.555 45.5703 284.797 44.6094 285.281 43.7188C 285.766 42.8125 286.445 42.0234 287.32 41.3516C 288.195 40.6797 289.234 40.1484 290.438 39.7578C 291.656 39.3672 292.992 39.1719 294.445 39.1719C 296.008 39.1719 297.414 39.375 298.664 39.7812C 299.914 40.1875 300.977 40.75 301.852 41.4688C 302.727 42.1875 303.398 43.0313 303.867 44C 304.352 44.9531 304.594 45.9844 304.594 47.0938L 300.258 47.0938C 300.258 46.5469 300.117 46.0156 299.836 45.5C 299.555 44.9687 299.164 44.5 298.664 44.0938C 298.164 43.6875 297.555 43.3594 296.836 43.1094C 296.133 42.8594 295.336 42.7344 294.445 42.7344C 293.523 42.7344 292.711 42.8359 292.008 43.0391C 291.32 43.2422 290.742 43.5156 290.273 43.8594C 289.82 44.2031 289.477 44.6016 289.242 45.0547C 289.008 45.5078 288.891 45.9766 288.891 46.4609C 288.891 46.9609 288.984 47.4062 289.172 47.7969C 289.359 48.1875 289.68 48.5391 290.133 48.8516C 290.602 49.1641 291.219 49.4453 291.984 49.6953C 292.766 49.9453 293.75 50.1875 294.938 50.4219C 296.5 50.75 297.898 51.1328 299.133 51.5703C 300.367 51.9922 301.406 52.5078 302.25 53.1172C 303.094 53.7109 303.734 54.4062 304.172 55.2031C 304.625 56 304.852 56.9219 304.852 57.9688C 304.852 59.0938 304.594 60.1172 304.078 61.0391C 303.578 61.9609 302.875 62.75 301.969 63.4062C 301.062 64.0625 299.977 64.5703 298.711 64.9297C 297.445 65.2891 296.062 65.4688 294.562 65.4688C 292.844 65.4688 291.313 65.2422 289.969 64.7891C 288.625 64.3203 287.484 63.7109 286.547 62.9609C 285.625 62.1953 284.914 61.3125 284.414 60.3125C 283.93 59.3125 283.688 58.2734 283.688 57.1953L 288.023 57.1953C 288.086 58.0859 288.32 58.8359 288.727 59.4453C 289.148 60.0547 289.664 60.5469 290.273 60.9219C 290.898 61.2969 291.586 61.5625 292.336 61.7188C 293.086 61.875 293.828 61.9531 294.562 61.9531C 296.391 61.9531 297.836 61.6172 298.898 60.9453C 299.961 60.2734 300.5 59.3828 300.516 58.2734ZM 362.695 65L 358.289 65L 345.047 39.5L 344.977 65L 340.594 65L 340.594 30.875L 345 30.875L 358.242 56.3281L 358.312 30.875L 362.695 30.875L 362.695 65ZM 386.812 65C 386.641 64.6719 386.5 64.2656 386.391 63.7812C 386.297 63.2812 386.227 62.7656 386.18 62.2344C 385.742 62.6719 385.25 63.0859 384.703 63.4766C 384.172 63.8672 383.578 64.2109 382.922 64.5078C 382.281 64.8047 381.594 65.0391 380.859 65.2109C 380.125 65.3828 379.344 65.4688 378.516 65.4688C 377.172 65.4688 375.953 65.2734 374.859 64.8828C 373.781 64.4922 372.859 63.9688 372.094 63.3125C 371.344 62.6406 370.758 61.8516 370.336 60.9453C 369.93 60.0234 369.727 59.0312 369.727 57.9688C 369.727 56.5781 370 55.3594 370.547 54.3125C 371.109 53.2656 371.898 52.3984 372.914 51.7109C 373.93 51.0078 375.148 50.4844 376.57 50.1406C 378.008 49.7969 379.609 49.625 381.375 49.625L 386.109 49.625L 386.109 47.6328C 386.109 46.8672 385.969 46.1797 385.688 45.5703C 385.406 44.9609 385.008 44.4453 384.492 44.0234C 383.977 43.5859 383.344 43.25 382.594 43.0156C 381.859 42.7812 381.031 42.6641 380.109 42.6641C 379.25 42.6641 378.477 42.7734 377.789 42.9922C 377.117 43.2109 376.547 43.5 376.078 43.8594C 375.609 44.2187 375.242 44.6484 374.977 45.1484C 374.727 45.6328 374.602 46.1406 374.602 46.6719L 370.242 46.6719C 370.258 45.75 370.492 44.8438 370.945 43.9531C 371.414 43.0625 372.078 42.2656 372.938 41.5625C 373.813 40.8438 374.867 40.2656 376.102 39.8281C 377.352 39.3906 378.766 39.1719 380.344 39.1719C 381.781 39.1719 383.117 39.3516 384.352 39.7109C 385.586 40.0547 386.648 40.5859 387.539 41.3047C 388.445 42.0078 389.156 42.8906 389.672 43.9531C 390.188 45.0156 390.445 46.2578 390.445 47.6797L 390.445 59.4688C 390.445 60.3125 390.523 61.2109 390.68 62.1641C 390.836 63.1016 391.055 63.9219 391.336 64.625L 391.336 65L 386.812 65ZM 379.148 61.6953C 379.992 61.6953 380.781 61.5859 381.516 61.3672C 382.25 61.1484 382.914 60.8594 383.508 60.5C 384.117 60.1406 384.641 59.7344 385.078 59.2812C 385.516 58.8125 385.859 58.3281 386.109 57.8281L 386.109 52.6953L 382.078 52.6953C 379.547 52.6953 377.578 53.0703 376.172 53.8203C 374.766 54.5703 374.062 55.75 374.062 57.3594C 374.062 57.9844 374.164 58.5625 374.367 59.0938C 374.586 59.625 374.906 60.0859 375.328 60.4766C 375.75 60.8516 376.281 61.1484 376.922 61.3672C 377.563 61.5859 378.305 61.6953 379.148 61.6953ZM 400.969 39.6406L 401.086 42.0312C 401.602 41.1406 402.273 40.4453 403.102 39.9453C 403.945 39.4453 404.961 39.1875 406.148 39.1719C 408.477 39.1719 410.031 40.0781 410.812 41.8906C 411.312 41.0781 411.969 40.4297 412.781 39.9453C 413.609 39.4453 414.609 39.1875 415.781 39.1719C 417.641 39.1719 419.07 39.7422 420.07 40.8828C 421.07 42.0234 421.57 43.75 421.57 46.0625L 421.57 65L 417.445 65L 417.445 46.0156C 417.445 43.8906 416.469 42.8359 414.516 42.8516C 414 42.8516 413.555 42.9219 413.18 43.0625C 412.805 43.2031 412.492 43.3984 412.242 43.6484C 411.992 43.8828 411.797 44.1641 411.656 44.4922C 411.516 44.8047 411.422 45.1328 411.375 45.4766L 411.375 65L 407.25 65L 407.25 45.9922C 407.25 44.9766 407.023 44.1953 406.57 43.6484C 406.117 43.1016 405.398 42.8359 404.414 42.8516C 403.508 42.8516 402.805 43.0313 402.305 43.3906C 401.805 43.75 401.438 44.2266 401.203 44.8203L 401.203 65L 397.078 65L 397.078 39.6406L 400.969 39.6406ZM 439.008 65.4688C 437.227 65.4688 435.586 65.1641 434.086 64.5547C 432.602 63.9453 431.328 63.0937 430.266 62C 429.203 60.9062 428.375 59.6094 427.781 58.1094C 427.188 56.6094 426.891 54.9766 426.891 53.2109L 426.891 52.2266C 426.891 50.1797 427.219 48.3516 427.875 46.7422C 428.531 45.1172 429.398 43.75 430.477 42.6406C 431.57 41.5156 432.805 40.6563 434.18 40.0625C 435.57 39.4687 436.992 39.1719 438.445 39.1719C 440.273 39.1719 441.867 39.4922 443.227 40.1328C 444.602 40.7578 445.742 41.6328 446.648 42.7578C 447.555 43.8672 448.227 45.1797 448.664 46.6953C 449.117 48.2109 449.344 49.8516 449.344 51.6172L 449.344 53.5625L 431.227 53.5625C 431.273 54.7188 431.492 55.8047 431.883 56.8203C 432.289 57.8359 432.836 58.7266 433.523 59.4922C 434.227 60.2422 435.062 60.8359 436.031 61.2734C 437 61.7109 438.07 61.9297 439.242 61.9297C 440.789 61.9297 442.164 61.6172 443.367 60.9922C 444.57 60.3672 445.57 59.5391 446.367 58.5078L 449.016 60.5703C 448.594 61.2109 448.063 61.8281 447.422 62.4219C 446.797 63 446.07 63.5156 445.242 63.9688C 444.414 64.4219 443.477 64.7813 442.43 65.0469C 441.383 65.3281 440.242 65.4688 439.008 65.4688ZM 438.445 42.7344C 437.57 42.7344 436.742 42.8984 435.961 43.2266C 435.18 43.5391 434.477 44.0078 433.852 44.6328C 433.227 45.2422 432.695 46 432.258 46.9062C 431.836 47.7969 431.539 48.8281 431.367 50L 445.008 50L 445.008 49.6719C 444.961 48.8281 444.797 47.9922 444.516 47.1641C 444.25 46.3359 443.852 45.5938 443.32 44.9375C 442.789 44.2812 442.117 43.75 441.305 43.3438C 440.508 42.9375 439.555 42.7344 438.445 42.7344Z"/>
<path id="path8_fill" d="M 0 0L 490 0L 490 62L 0 62L 0 0Z"/>
<path id="path9_stroke_2x" d="M 0 0L 0 -1L -1 -1L -1 0L 0 0ZM 490 0L 491 0L 491 -1L 490 -1L 490 0ZM 490 62L 490 63L 491 63L 491 62L 490 62ZM 0 62L -1 62L -1 63L 0 63L 0 62ZM 0 1L 490 1L 490 -1L 0 -1L 0 1ZM 489 0L 489 62L 491 62L 491 0L 489 0ZM 490 61L 0 61L 0 63L 490 63L 490 61ZM 1 62L 1 0L -1 0L -1 62L 1 62Z"/>
<path id="path10_fill" d="M 0 15C 0 6.71573 6.71573 0 15 0L 183 0C 191.284 0 198 6.71573 198 15L 198 32C 198 40.2843 191.284 47 183 47L 15 47C 6.71573 47 0 40.2843 0 32L 0 15Z"/>
<path id="path11_fill" d="M 57.1133 24.582L 51.418 24.582L 50.0469 29L 47.8789 29L 53.3867 11.9375L 55.2031 11.9375L 60.6172 29L 58.4609 29L 57.1133 24.582ZM 52.0039 22.6953L 56.5391 22.6953L 54.2891 15.2891L 52.0039 22.6953ZM 62.9727 22.5547C 62.9727 21.6094 63.0898 20.7422 63.3242 19.9531C 63.5664 19.1562 63.9062 18.4727 64.3438 17.9023C 64.7891 17.332 65.3242 16.8867 65.9492 16.5664C 66.5742 16.2461 67.2734 16.0859 68.0469 16.0859C 68.8047 16.0859 69.4648 16.2148 70.0273 16.4727C 70.5977 16.7227 71.0898 17.0898 71.5039 17.5742L 71.5039 11L 73.6719 11L 73.6719 29L 71.6797 29L 71.5859 27.6641C 71.1641 28.1797 70.6602 28.5703 70.0742 28.8359C 69.4883 29.1016 68.8047 29.2344 68.0234 29.2344C 67.2578 29.2344 66.5625 29.0703 65.9375 28.7422C 65.3203 28.4141 64.793 27.9609 64.3555 27.3828C 63.918 26.8047 63.5781 26.125 63.3359 25.3438C 63.0938 24.5547 62.9727 23.707 62.9727 22.8008L 62.9727 22.5547ZM 65.1406 22.8008C 65.1406 23.418 65.207 24.0039 65.3398 24.5586C 65.4727 25.1133 65.6758 25.6016 65.9492 26.0234C 66.2305 26.4453 66.5859 26.7812 67.0156 27.0312C 67.4453 27.2734 67.9609 27.3945 68.5625 27.3945C 68.9297 27.3945 69.2617 27.3516 69.5586 27.2656C 69.8555 27.1797 70.125 27.0586 70.3672 26.9023C 70.6094 26.7383 70.8242 26.5469 71.0117 26.3281C 71.1992 26.1016 71.3633 25.8516 71.5039 25.5781L 71.5039 19.6953C 71.2227 19.1797 70.8438 18.7578 70.3672 18.4297C 69.8906 18.0938 69.2969 17.9258 68.5859 17.9258C 67.9766 17.9258 67.4531 18.0508 67.0156 18.3008C 66.5859 18.5508 66.2305 18.8906 65.9492 19.3203C 65.6758 19.7422 65.4727 20.2344 65.3398 20.7969C 65.207 21.3516 65.1406 21.9375 65.1406 22.5547L 65.1406 22.8008ZM 77.3867 22.5547C 77.3867 21.6094 77.5039 20.7422 77.7383 19.9531C 77.9805 19.1562 78.3203 18.4727 78.7578 17.9023C 79.2031 17.332 79.7383 16.8867 80.3633 16.5664C 80.9883 16.2461 81.6875 16.0859 82.4609 16.0859C 83.2188 16.0859 83.8789 16.2148 84.4414 16.4727C 85.0117 16.7227 85.5039 17.0898 85.918 17.5742L 85.918 11L 88.0859 11L 88.0859 29L 86.0938 29L 86 27.6641C 85.5781 28.1797 85.0742 28.5703 84.4883 28.8359C 83.9023 29.1016 83.2188 29.2344 82.4375 29.2344C 81.6719 29.2344 80.9766 29.0703 80.3516 28.7422C 79.7344 28.4141 79.207 27.9609 78.7695 27.3828C 78.332 26.8047 77.9922 26.125 77.75 25.3438C 77.5078 24.5547 77.3867 23.707 77.3867 22.8008L 77.3867 22.5547ZM 79.5547 22.8008C 79.5547 23.418 79.6211 24.0039 79.7539 24.5586C 79.8867 25.1133 80.0898 25.6016 80.3633 26.0234C 80.6445 26.4453 81 26.7812 81.4297 27.0312C 81.8594 27.2734 82.375 27.3945 82.9766 27.3945C 83.3438 27.3945 83.6758 27.3516 83.9727 27.2656C 84.2695 27.1797 84.5391 27.0586 84.7812 26.9023C 85.0234 26.7383 85.2383 26.5469 85.4258 26.3281C 85.6133 26.1016 85.7773 25.8516 85.918 25.5781L 85.918 19.6953C 85.6367 19.1797 85.2578 18.7578 84.7812 18.4297C 84.3047 18.0938 83.7109 17.9258 83 17.9258C 82.3906 17.9258 81.8672 18.0508 81.4297 18.3008C 81 18.5508 80.6445 18.8906 80.3633 19.3203C 80.0898 19.7422 79.8867 20.2344 79.7539 20.7969C 79.6211 21.3516 79.5547 21.9375 79.5547 22.5547L 79.5547 22.8008ZM 117.676 23.8672C 117.574 24.6562 117.371 25.3828 117.066 26.0469C 116.762 26.7031 116.363 27.2695 115.871 27.7461C 115.387 28.2148 114.809 28.582 114.137 28.8477C 113.473 29.1055 112.73 29.2344 111.91 29.2344C 111.207 29.2344 110.566 29.1367 109.988 28.9414C 109.418 28.7383 108.906 28.4609 108.453 28.1094C 108.008 27.7578 107.621 27.3438 107.293 26.8672C 106.973 26.3906 106.703 25.8711 106.484 25.3086C 106.273 24.7461 106.113 24.1562 106.004 23.5391C 105.902 22.9219 105.848 22.2969 105.84 21.6641L 105.84 19.2852C 105.848 18.6523 105.902 18.0273 106.004 17.4102C 106.113 16.793 106.273 16.2031 106.484 15.6406C 106.703 15.0781 106.973 14.5586 107.293 14.082C 107.621 13.5977 108.008 13.1797 108.453 12.8281C 108.906 12.4766 109.418 12.2031 109.988 12.0078C 110.559 11.8047 111.199 11.7031 111.91 11.7031C 112.762 11.7031 113.523 11.8359 114.195 12.1016C 114.867 12.3594 115.445 12.7305 115.93 13.2148C 116.414 13.6914 116.801 14.2656 117.09 14.9375C 117.387 15.6094 117.582 16.3516 117.676 17.1641L 115.508 17.1641C 115.438 16.6484 115.316 16.168 115.145 15.7227C 114.973 15.2773 114.742 14.8867 114.453 14.5508C 114.164 14.2148 113.809 13.9531 113.387 13.7656C 112.973 13.5703 112.48 13.4727 111.91 13.4727C 111.395 13.4727 110.938 13.5586 110.539 13.7305C 110.148 13.8945 109.809 14.1211 109.52 14.4102C 109.238 14.6992 109 15.0352 108.805 15.418C 108.617 15.8008 108.465 16.207 108.348 16.6367C 108.23 17.0664 108.145 17.5078 108.09 17.9609C 108.043 18.4062 108.02 18.8398 108.02 19.2617L 108.02 21.6641C 108.02 22.0859 108.043 22.5234 108.09 22.9766C 108.145 23.4219 108.23 23.8633 108.348 24.3008C 108.465 24.7305 108.617 25.1367 108.805 25.5195C 108.992 25.9023 109.23 26.2422 109.52 26.5391C 109.809 26.8281 110.148 27.0586 110.539 27.2305C 110.93 27.3945 111.387 27.4766 111.91 27.4766C 112.48 27.4766 112.973 27.3867 113.387 27.207C 113.809 27.0273 114.164 26.7773 114.453 26.457C 114.742 26.1289 114.973 25.7461 115.145 25.3086C 115.316 24.8633 115.438 24.3828 115.508 23.8672L 117.676 23.8672ZM 129.371 29C 129.285 28.8359 129.215 28.6328 129.16 28.3906C 129.113 28.1406 129.078 27.8828 129.055 27.6172C 128.836 27.8359 128.59 28.043 128.316 28.2383C 128.051 28.4336 127.754 28.6055 127.426 28.7539C 127.105 28.9023 126.762 29.0195 126.395 29.1055C 126.027 29.1914 125.637 29.2344 125.223 29.2344C 124.551 29.2344 123.941 29.1367 123.395 28.9414C 122.855 28.7461 122.395 28.4844 122.012 28.1562C 121.637 27.8203 121.344 27.4258 121.133 26.9727C 120.93 26.5117 120.828 26.0156 120.828 25.4844C 120.828 24.7891 120.965 24.1797 121.238 23.6562C 121.52 23.1328 121.914 22.6992 122.422 22.3555C 122.93 22.0039 123.539 21.7422 124.25 21.5703C 124.969 21.3984 125.77 21.3125 126.652 21.3125L 129.02 21.3125L 129.02 20.3164C 129.02 19.9336 128.949 19.5898 128.809 19.2852C 128.668 18.9805 128.469 18.7227 128.211 18.5117C 127.953 18.293 127.637 18.125 127.262 18.0078C 126.895 17.8906 126.48 17.832 126.02 17.832C 125.59 17.832 125.203 17.8867 124.859 17.9961C 124.523 18.1055 124.238 18.25 124.004 18.4297C 123.77 18.6094 123.586 18.8242 123.453 19.0742C 123.328 19.3164 123.266 19.5703 123.266 19.8359L 121.086 19.8359C 121.094 19.375 121.211 18.9219 121.438 18.4766C 121.672 18.0312 122.004 17.6328 122.434 17.2812C 122.871 16.9219 123.398 16.6328 124.016 16.4141C 124.641 16.1953 125.348 16.0859 126.137 16.0859C 126.855 16.0859 127.523 16.1758 128.141 16.3555C 128.758 16.5273 129.289 16.793 129.734 17.1523C 130.188 17.5039 130.543 17.9453 130.801 18.4766C 131.059 19.0078 131.188 19.6289 131.188 20.3398L 131.188 26.2344C 131.188 26.6562 131.227 27.1055 131.305 27.582C 131.383 28.0508 131.492 28.4609 131.633 28.8125L 131.633 29L 129.371 29ZM 125.539 27.3477C 125.961 27.3477 126.355 27.293 126.723 27.1836C 127.09 27.0742 127.422 26.9297 127.719 26.75C 128.023 26.5703 128.285 26.3672 128.504 26.1406C 128.723 25.9062 128.895 25.6641 129.02 25.4141L 129.02 22.8477L 127.004 22.8477C 125.738 22.8477 124.754 23.0352 124.051 23.4102C 123.348 23.7852 122.996 24.375 122.996 25.1797C 122.996 25.4922 123.047 25.7812 123.148 26.0469C 123.258 26.3125 123.418 26.543 123.629 26.7383C 123.84 26.9258 124.105 27.0742 124.426 27.1836C 124.746 27.293 125.117 27.3477 125.539 27.3477ZM 136.449 16.3203L 136.508 17.5156C 136.766 17.0703 137.102 16.7227 137.516 16.4727C 137.938 16.2227 138.445 16.0938 139.039 16.0859C 140.203 16.0859 140.98 16.5391 141.371 17.4453C 141.621 17.0391 141.949 16.7148 142.355 16.4727C 142.77 16.2227 143.27 16.0938 143.855 16.0859C 144.785 16.0859 145.5 16.3711 146 16.9414C 146.5 17.5117 146.75 18.375 146.75 19.5312L 146.75 29L 144.688 29L 144.688 19.5078C 144.688 18.4453 144.199 17.918 143.223 17.9258C 142.965 17.9258 142.742 17.9609 142.555 18.0312C 142.367 18.1016 142.211 18.1992 142.086 18.3242C 141.961 18.4414 141.863 18.582 141.793 18.7461C 141.723 18.9023 141.676 19.0664 141.652 19.2383L 141.652 29L 139.59 29L 139.59 19.4961C 139.59 18.9883 139.477 18.5977 139.25 18.3242C 139.023 18.0508 138.664 17.918 138.172 17.9258C 137.719 17.9258 137.367 18.0156 137.117 18.1953C 136.867 18.375 136.684 18.6133 136.566 18.9102L 136.566 29L 134.504 29L 134.504 16.3203L 136.449 16.3203ZM 160.566 22.8008C 160.566 23.707 160.457 24.5547 160.238 25.3438C 160.02 26.125 159.699 26.8047 159.277 27.3828C 158.855 27.9609 158.332 28.4141 157.707 28.7422C 157.09 29.0703 156.383 29.2344 155.586 29.2344C 154.812 29.2344 154.129 29.1094 153.535 28.8594C 152.949 28.6094 152.445 28.25 152.023 27.7812L 152.023 33.875L 149.855 33.875L 149.855 16.3203L 151.836 16.3203L 151.941 17.7031C 152.363 17.1797 152.871 16.7812 153.465 16.5078C 154.066 16.2266 154.762 16.0859 155.551 16.0859C 156.363 16.0859 157.082 16.2461 157.707 16.5664C 158.332 16.8867 158.855 17.332 159.277 17.9023C 159.699 18.4727 160.02 19.1562 160.238 19.9531C 160.457 20.7422 160.566 21.6094 160.566 22.5547L 160.566 22.8008ZM 158.398 22.5547C 158.398 21.9375 158.328 21.3516 158.188 20.7969C 158.055 20.2344 157.844 19.7422 157.555 19.3203C 157.273 18.8906 156.914 18.5508 156.477 18.3008C 156.039 18.0508 155.516 17.9258 154.906 17.9258C 154.211 17.9258 153.625 18.0898 153.148 18.418C 152.68 18.7383 152.305 19.1523 152.023 19.6602L 152.023 25.7656C 152.305 26.2656 152.68 26.6758 153.148 26.9961C 153.617 27.3086 154.211 27.4648 154.93 27.4648C 155.531 27.4648 156.051 27.3398 156.488 27.0898C 156.926 26.832 157.285 26.4883 157.566 26.0586C 157.848 25.6289 158.055 25.1328 158.188 24.5703C 158.328 24.0078 158.398 23.418 158.398 22.8008L 158.398 22.5547ZM 172.508 27.2539C 172.086 27.8789 171.559 28.3672 170.926 28.7188C 170.293 29.0625 169.562 29.2344 168.734 29.2344C 168.07 29.2344 167.469 29.1328 166.93 28.9297C 166.391 28.7188 165.93 28.3945 165.547 27.957C 165.164 27.5195 164.867 26.9648 164.656 26.293C 164.453 25.6133 164.352 24.8008 164.352 23.8555L 164.352 16.3203L 166.52 16.3203L 166.52 23.8789C 166.52 24.5664 166.574 25.1367 166.684 25.5898C 166.793 26.043 166.957 26.4062 167.176 26.6797C 167.395 26.9453 167.66 27.1328 167.973 27.2422C 168.293 27.3516 168.66 27.4062 169.074 27.4062C 169.957 27.4062 170.668 27.2266 171.207 26.8672C 171.754 26.5078 172.16 26.0234 172.426 25.4141L 172.426 16.3203L 174.605 16.3203L 174.605 29L 172.637 29L 172.508 27.2539ZM 187.121 25.6367C 187.121 25.3789 187.07 25.1484 186.969 24.9453C 186.867 24.7344 186.695 24.543 186.453 24.3711C 186.211 24.1992 185.891 24.043 185.492 23.9023C 185.094 23.7539 184.598 23.6211 184.004 23.5039C 183.277 23.3555 182.613 23.1758 182.012 22.9648C 181.418 22.7539 180.906 22.5039 180.477 22.2148C 180.055 21.918 179.727 21.5742 179.492 21.1836C 179.258 20.7852 179.141 20.3242 179.141 19.8008C 179.141 19.2852 179.262 18.8047 179.504 18.3594C 179.746 17.9062 180.086 17.5117 180.523 17.1758C 180.961 16.8398 181.48 16.5742 182.082 16.3789C 182.691 16.1836 183.359 16.0859 184.086 16.0859C 184.867 16.0859 185.57 16.1875 186.195 16.3906C 186.82 16.5938 187.352 16.875 187.789 17.2344C 188.227 17.5938 188.562 18.0156 188.797 18.5C 189.039 18.9766 189.16 19.4922 189.16 20.0469L 186.992 20.0469C 186.992 19.7734 186.922 19.5078 186.781 19.25C 186.641 18.9844 186.445 18.75 186.195 18.5469C 185.945 18.3438 185.641 18.1797 185.281 18.0547C 184.93 17.9297 184.531 17.8672 184.086 17.8672C 183.625 17.8672 183.219 17.918 182.867 18.0195C 182.523 18.1211 182.234 18.2578 182 18.4297C 181.773 18.6016 181.602 18.8008 181.484 19.0273C 181.367 19.2539 181.309 19.4883 181.309 19.7305C 181.309 19.9805 181.355 20.2031 181.449 20.3984C 181.543 20.5938 181.703 20.7695 181.93 20.9258C 182.164 21.082 182.473 21.2227 182.855 21.3477C 183.246 21.4727 183.738 21.5938 184.332 21.7109C 185.113 21.875 185.812 22.0664 186.43 22.2852C 187.047 22.4961 187.566 22.7539 187.988 23.0586C 188.41 23.3555 188.73 23.7031 188.949 24.1016C 189.176 24.5 189.289 24.9609 189.289 25.4844C 189.289 26.0469 189.16 26.5586 188.902 27.0195C 188.652 27.4805 188.301 27.875 187.848 28.2031C 187.395 28.5312 186.852 28.7852 186.219 28.9648C 185.586 29.1445 184.895 29.2344 184.145 29.2344C 183.285 29.2344 182.52 29.1211 181.848 28.8945C 181.176 28.6602 180.605 28.3555 180.137 27.9805C 179.676 27.5977 179.32 27.1562 179.07 26.6562C 178.828 26.1562 178.707 25.6367 178.707 25.0977L 180.875 25.0977C 180.906 25.543 181.023 25.918 181.227 26.2227C 181.438 26.5273 181.695 26.7734 182 26.9609C 182.312 27.1484 182.656 27.2812 183.031 27.3594C 183.406 27.4375 183.777 27.4766 184.145 27.4766C 185.059 27.4766 185.781 27.3086 186.312 26.9727C 186.844 26.6367 187.113 26.1914 187.121 25.6367Z"/>
</defs>
</svg>
